<?xml version="1.0" encoding="UTF-8" standalone="no"?>
<!-- Generator: Adobe Illustrator 16.0.0, SVG Export Plug-In . SVG Version: 6.00 Build 0)  -->

<svg
   xmlns:dc="http://purl.org/dc/elements/1.1/"
   xmlns:cc="http://creativecommons.org/ns#"
   xmlns:rdf="http://www.w3.org/1999/02/22-rdf-syntax-ns#"
   xmlns:svg="http://www.w3.org/2000/svg"
   xmlns="http://www.w3.org/2000/svg"
   xmlns:sodipodi="http://sodipodi.sourceforge.net/DTD/sodipodi-0.dtd"
   xmlns:inkscape="http://www.inkscape.org/namespaces/inkscape"
   version="1.1"
   id="Layer_1"
   x="0px"
   y="0px"
   width="538.068px"
   height="142.614px"
   viewBox="0 0 538.068 142.614"
   enable-background="new 0 0 538.068 142.614"
   xml:space="preserve"
   inkscape:version="0.91 r"
   sodipodi:docname="torgo - orange and green2.svg"><metadata
     id="metadata290"><rdf:RDF><cc:Work
         rdf:about=""><dc:format>image/svg+xml</dc:format><dc:type
           rdf:resource="http://purl.org/dc/dcmitype/StillImage" /><dc:title></dc:title></cc:Work></rdf:RDF></metadata><defs
     id="defs288" /><sodipodi:namedview
     pagecolor="#ffffff"
     bordercolor="#666666"
     borderopacity="1"
     objecttolerance="10"
     gridtolerance="10"
     guidetolerance="10"
     inkscape:pageopacity="0"
     inkscape:pageshadow="2"
     inkscape:window-width="1920"
     inkscape:window-height="1056"
     id="namedview286"
     showgrid="false"
     inkscape:zoom="3.4693792"
     inkscape:cx="269.034"
     inkscape:cy="151.67369"
     inkscape:window-x="0"
     inkscape:window-y="24"
     inkscape:window-maximized="1"
     inkscape:current-layer="Layer_1" /><g
     id="g4003"
     transform="translate(0.1900256,0.16685173)"><polygon
       id="polygon65_1_"
       fill="#05733B"
       points="472.482,68.709 464.505,71.305 456.583,68.709 456.583,63.549 464.505,60.949    464.505,60.949 472.482,63.549  " /><polygon
       id="polygon65_2_"
       fill="#05733B"
       points="484.026,79.065 476.049,81.662 468.127,79.065 468.127,73.906 476.049,71.305    476.049,71.305 484.026,73.906  " /><polygon
       id="polygon65_3_"
       fill="#05733B"
       points="461.786,79.065 453.809,81.662 445.887,79.065 445.887,73.906 453.809,71.305    453.809,71.305 461.786,73.906  " /><polygon
       id="polygon65_4_"
       fill="#05733B"
       points="450.928,68.709 442.952,71.305 435.03,68.709 435.03,63.549 442.952,60.949    442.952,60.949 450.928,63.549  " /><polygon
       id="polygon65_5_"
       fill="#05733B"
       points="461.786,58.352 453.809,60.949 445.887,58.352 445.887,53.193 453.809,50.592    453.809,50.592 461.786,53.193  " /><polygon
       id="polygon65_6_"
       fill="#05733B"
       points="484.026,58.352 476.049,60.949 468.127,58.352 468.127,53.193 476.049,50.592    476.049,50.592 484.026,53.193  " /><polygon
       id="polygon65_7_"
       fill="#05733B"
       points="494.036,68.709 486.059,71.305 478.137,68.709 478.137,63.549 486.059,60.949    486.059,60.949 494.036,63.549  " /></g><g
     id="g11"><g
       id="g13"><path
         fill="none"
         stroke="#F26822"
         stroke-miterlimit="10"
         d="M169.158,53.936c-3.987-3.275-9.01-4.913-15.07-4.913h-21.443    c-6.127,0-11.167,1.638-15.12,4.913s-5.929,7.462-5.929,12.556c0,5.097,1.976,9.217,5.929,12.359    c3.953,3.142,8.993,4.713,15.12,4.713h21.443c6.127,0,11.167-1.571,15.119-4.713c3.953-3.143,5.929-7.263,5.929-12.359    C175.136,61.398,173.143,57.211,169.158,53.936z"
         id="path15" /><path
         fill="none"
         stroke="#F26822"
         stroke-miterlimit="10"
         d="M185.033,40.314c-8.051-6.466-18.376-9.699-30.978-9.699h-4.639    h-16.838H27.669L13.417,49.023h29.395v52.95h22.169v-52.95h28.825c-2.913,4.831-4.38,10.37-4.38,16.627    c0,10.427,4.074,19.086,12.223,25.98c8.148,6.896,18.458,10.343,30.929,10.343h21.477c12.404,0,22.68-3.447,30.83-10.343    c8.148-6.895,12.223-15.554,12.223-25.98C197.108,55.226,193.083,46.781,185.033,40.314z M169.207,78.851    c-3.953,3.142-8.992,4.713-15.119,4.713h-21.443c-6.127,0-11.167-1.571-15.12-4.713c-3.953-3.143-5.929-7.263-5.929-12.359    c0-5.094,1.976-9.28,5.929-12.556s8.993-4.913,15.12-4.913h21.443c6.06,0,11.083,1.638,15.07,4.913    c3.985,3.275,5.979,7.462,5.979,12.556C175.136,71.588,173.16,75.708,169.207,78.851z"
         id="path17" /></g><path
       fill="#F26822"
       d="M309.34,101.973h-32.165l-21.576-17.914h-30.483v17.914h-22.17V65.65h61.56   c3.761,0,6.862-0.567,9.304-1.702c3.1-1.469,4.65-3.639,4.65-6.511c0-5.608-4.65-8.414-13.955-8.414h-61.56l14.45-18.408h45.032   c11.15,0,20.19,2.112,27.119,6.334c7.783,4.817,11.678,11.679,11.678,20.586c0,5.015-1.568,9.551-4.701,13.608   c-3.135,4.058-7.473,7.176-13.014,9.353L309.34,101.973z"
       id="path19" /><g
       id="g21"><path
         fill="none"
         stroke="#05733B"
         stroke-miterlimit="10"
         d="M490.515,53.936c-3.986-3.275-9.01-4.913-15.07-4.913h-21.442    c-6.127,0-11.167,1.638-15.119,4.913c-3.953,3.275-5.93,7.462-5.93,12.556c0,5.097,1.977,9.217,5.93,12.359    c3.952,3.142,8.992,4.713,15.119,4.713h21.442c6.127,0,11.167-1.571,15.12-4.713c3.952-3.143,5.929-7.263,5.929-12.359    C496.493,61.398,494.5,57.211,490.515,53.936z"
         id="path23" /><path
         fill="#05733B"
         d="M506.39,40.314c-8.05-6.466-18.376-9.699-30.978-9.699h-10.787h-10.689h-97.287    c-12.604,0-22.93,3.233-30.979,9.699c-8.051,6.467-12.074,14.912-12.074,25.336c0,10.427,4.073,19.086,12.223,25.98    c8.148,6.896,18.424,10.343,30.83,10.343h47.901V59.316h-64.43l14.549,17.617h27.712v6.631h-25.732    c-6.137,0-11.185-1.571-15.143-4.713c-3.959-3.143-5.938-7.263-5.938-12.359c0-5.094,1.995-9.28,5.987-12.556    c3.991-3.275,9.022-4.913,15.094-4.913h58.516c-2.912,4.831-4.38,10.37-4.38,16.627c0,10.427,4.073,19.086,12.223,25.98    c8.148,6.896,18.458,10.343,30.929,10.343h21.477c12.404,0,22.68-3.447,30.829-10.343c8.148-6.895,12.224-15.554,12.224-25.98    C518.465,55.226,514.439,46.781,506.39,40.314z M490.564,78.851c-3.953,3.142-8.993,4.713-15.12,4.713h-21.442    c-6.127,0-11.167-1.571-15.119-4.713c-3.953-3.143-5.93-7.263-5.93-12.359c0-5.094,1.977-9.28,5.93-12.556    c3.952-3.275,8.992-4.913,15.119-4.913h21.442c6.061,0,11.084,1.638,15.07,4.913c3.985,3.275,5.979,7.462,5.979,12.556    C496.493,71.588,494.517,75.708,490.564,78.851z"
         id="path25" /></g><rect
       x="132.329"
       y="29.877"
       fill="#F26822"
       stroke="#F26822"
       stroke-miterlimit="10"
       width="1.843"
       height="1.844"
       id="rect27" /><rect
       x="152.656"
       y="29.662"
       fill="#F26822"
       stroke="#F26822"
       stroke-miterlimit="10"
       width="1.843"
       height="1.844"
       id="rect29" /><rect
       x="152.656"
       y="48.101"
       fill="#F26822"
       stroke="#F26822"
       stroke-miterlimit="10"
       width="1.843"
       height="1.844"
       id="rect31" /><rect
       x="184.829"
       y="39.687"
       fill="#F26822"
       stroke="#F26822"
       stroke-miterlimit="10"
       width="1.843"
       height="1.844"
       id="rect33" /><rect
       x="196.187"
       y="65.373"
       fill="#F26822"
       stroke="#F26822"
       stroke-miterlimit="10"
       width="1.843"
       height="1.844"
       id="rect35" /><rect
       x="184.829"
       y="90.386"
       fill="#F26822"
       stroke="#F26822"
       stroke-miterlimit="10"
       width="1.843"
       height="1.844"
       id="rect37" /><rect
       x="152.656"
       y="82.642"
       fill="#F26822"
       stroke="#F26822"
       stroke-miterlimit="10"
       width="1.843"
       height="1.844"
       id="rect39" /><rect
       x="132.329"
       y="82.642"
       fill="#F26822"
       stroke="#F26822"
       stroke-miterlimit="10"
       width="1.843"
       height="1.844"
       id="rect41" /><rect
       x="132.329"
       y="101.051"
       fill="#F26822"
       stroke="#F26822"
       stroke-miterlimit="10"
       width="1.843"
       height="1.844"
       id="rect43" /><rect
       x="152.656"
       y="101.051"
       fill="#F26822"
       stroke="#F26822"
       stroke-miterlimit="10"
       width="1.843"
       height="1.844"
       id="rect45" /><rect
       x="99.829"
       y="90.386"
       fill="#F26822"
       stroke="#F26822"
       stroke-miterlimit="10"
       width="1.843"
       height="1.844"
       id="rect47" /><rect
       x="88.579"
       y="65.373"
       fill="#F26822"
       stroke="#F26822"
       stroke-miterlimit="10"
       width="1.843"
       height="1.844"
       id="rect49" /><rect
       x="92.829"
       y="48.101"
       fill="#F26822"
       stroke="#F26822"
       stroke-miterlimit="10"
       width="1.843"
       height="1.844"
       id="rect51" /><rect
       x="116.635"
       y="53.043"
       fill="#F26822"
       stroke="#F26822"
       stroke-miterlimit="10"
       width="1.843"
       height="1.844"
       id="rect53" /><rect
       x="116.635"
       y="77.918"
       fill="#F26822"
       stroke="#F26822"
       stroke-miterlimit="10"
       width="1.843"
       height="1.844"
       id="rect55" /><rect
       x="168.385"
       y="77.918"
       fill="#F26822"
       stroke="#F26822"
       stroke-miterlimit="10"
       width="1.843"
       height="1.844"
       id="rect57" /><rect
       x="168.385"
       y="53.043"
       fill="#F26822"
       stroke="#F26822"
       stroke-miterlimit="10"
       width="1.843"
       height="1.844"
       id="rect59" /><rect
       x="64.079"
       y="48.101"
       fill="#F26822"
       stroke="#F26822"
       stroke-miterlimit="10"
       width="1.843"
       height="1.844"
       id="rect61" /><rect
       x="64.079"
       y="101.051"
       fill="#F26822"
       stroke="#F26822"
       stroke-miterlimit="10"
       width="1.843"
       height="1.844"
       id="rect63" /><rect
       x="41.954"
       y="101.051"
       fill="#F26822"
       stroke="#F26822"
       stroke-miterlimit="10"
       width="1.843"
       height="1.844"
       id="rect65" /><rect
       x="41.908"
       y="48.101"
       fill="#F26822"
       stroke="#F26822"
       stroke-miterlimit="10"
       width="1.843"
       height="1.844"
       id="rect67" /><rect
       x="12.496"
       y="48.101"
       fill="#F26822"
       stroke="#F26822"
       stroke-miterlimit="10"
       width="1.843"
       height="1.844"
       id="rect69" /><rect
       x="26.815"
       y="29.693"
       fill="#F26822"
       stroke="#F26822"
       stroke-miterlimit="10"
       width="1.843"
       height="1.844"
       id="rect71" /><rect
       x="110.675"
       y="65.373"
       fill="#F26822"
       stroke="#F26822"
       stroke-miterlimit="10"
       width="1.843"
       height="1.844"
       id="rect73" /><rect
       x="174.214"
       y="65.373"
       fill="#F26822"
       stroke="#F26822"
       stroke-miterlimit="10"
       width="1.843"
       height="1.844"
       id="rect75" /><rect
       x="132.329"
       y="48.101"
       fill="#F26822"
       stroke="#F26822"
       stroke-miterlimit="10"
       width="1.843"
       height="1.844"
       id="rect77" /></g><g
     id="g4003_1_"
     transform="translate(0.1900256,0.16685173)"><path
       id="path7_1_"
       inkscape:connector-curvature="0"
       fill="#05733B"
       d="M16.903,44.281c3.39,2.462,8.158,1.705,10.625-1.691   c2.457-3.384,1.706-8.157-1.684-10.619c-3.391-2.462-8.172-1.704-10.628,1.678C12.75,37.047,13.513,41.819,16.903,44.281   L16.903,44.281z" /><path
       id="path9_1_"
       inkscape:connector-curvature="0"
       fill="#FFFFFF"
       d="M25.158,32.915c1.428,1.036,2.309,2.569,2.567,4.2   c0.259,1.631-0.104,3.36-1.141,4.788c-1.043,1.435-2.574,2.316-4.206,2.575c-1.631,0.259-3.36-0.104-4.788-1.142l0.293-0.404   c1.319,0.959,2.917,1.291,4.418,1.061c1.506-0.239,2.922-1.051,3.886-2.378c0.958-1.319,1.287-2.909,1.047-4.416   c-0.239-1.506-1.051-2.921-2.371-3.88L25.158,32.915L25.158,32.915L25.158,32.915z M17.59,43.337   c-1.436-1.043-2.317-2.575-2.568-4.2c-0.259-1.632,0.098-3.367,1.14-4.802c1.038-1.428,2.576-2.304,4.208-2.563   c1.624-0.265,3.353,0.1,4.789,1.143l-0.293,0.403c-1.32-0.958-2.918-1.292-4.424-1.054c-1.506,0.24-2.917,1.044-3.875,2.364   c-0.964,1.326-1.297,2.924-1.059,4.431c0.243,1.498,1.055,2.914,2.375,3.873L17.59,43.337L17.59,43.337L17.59,43.337z" /><path
       id="path11"
       inkscape:connector-curvature="0"
       fill="#05733B"
       d="M25.602,28.192l2.745,0.33l1.142,2.493l-0.346,0.476   c0.133-0.046,0.291-0.021,0.42,0.074c0.209,0.152,0.257,0.45,0.104,0.659c-0.152,0.209-0.45,0.257-0.66,0.104   c-0.129-0.094-0.203-0.234-0.2-0.376l-1.052,1.449l-0.058-0.042c-0.468-0.615-1.022-1.172-1.67-1.643   c-0.65-0.471-1.359-0.831-2.081-1.081l-0.079-0.057l1.053-1.449c-0.14,0.04-0.291,0.02-0.42-0.074   c-0.208-0.152-0.256-0.451-0.104-0.66c0.151-0.21,0.45-0.257,0.66-0.104c0.13,0.094,0.196,0.23,0.201,0.376L25.602,28.192   L25.602,28.192z" /><polygon
       id="polygon13"
       fill="#05733B"
       points="18.538,27.877 18.453,27.615 18.797,27.492 19.033,27.409 19.118,27.67    18.895,27.75 19.024,28.119 19.024,28.119 19.518,28.06 19.442,27.421 19.81,27.368 19.893,28.012 20.344,27.955 20.384,27.565    20.137,27.54 20.159,27.269 20.406,27.294 20.78,27.323 20.753,27.602 20.722,27.92 21.032,30.358 18.955,30.626 18.645,28.185     " /><polygon
       id="polygon15"
       fill="#05733B"
       points="32.042,37.255 32.316,37.254 32.32,36.883 32.333,36.638 32.059,36.637    32.052,36.875 31.662,36.867 31.662,36.867 31.557,36.373 32.196,36.253 32.124,35.881 31.493,36.006 31.402,35.555 31.767,35.402    31.86,35.623 32.117,35.512 32.023,35.29 31.874,34.95 31.618,35.062 31.326,35.191 28.91,35.65 29.299,37.708 31.713,37.235  " /><polygon
       id="polygon17"
       fill="#05733B"
       points="10.626,38.864 10.356,38.854 10.339,39.228 10.34,39.47 10.609,39.478    10.621,39.235 11.012,39.243 11.012,39.243 11.103,39.739 10.473,39.864 10.549,40.228 11.18,40.102 11.271,40.554 10.906,40.709    10.807,40.481 10.557,40.597 10.649,40.818 10.798,41.159 11.05,41.054 11.342,40.924 13.764,40.459 13.369,38.409 10.953,38.869     " /><polygon
       id="polygon19"
       fill="#05733B"
       points="24.069,48.627 24.16,48.88 23.811,49.011 23.581,49.086 23.489,48.833    23.719,48.746 23.59,48.377 23.59,48.377 23.089,48.443 23.166,49.082 22.803,49.127 22.719,48.482 22.269,48.542 22.228,48.93    22.475,48.955 22.449,49.233 22.203,49.209 21.833,49.173 21.854,48.9 21.887,48.583 21.581,46.136 23.653,45.878 23.963,48.317     " /><polygon
       id="polygon21"
       fill="#05733B"
       points="16.447,44.379 17.059,44.824 14.609,47.516  " /><polygon
       id="polygon23_1_"
       fill="#FFFFFF"
       points="23.477,36.882 23.022,39.131 21.031,40.25 19.502,39.14 19.957,36.905    19.957,36.905 21.948,35.772  " /><path
       id="path25_1_"
       inkscape:connector-curvature="0"
       fill="#EAF1EB"
       d="M19.987,36.925c0.643-0.371,1.299-0.741,1.949-1.107   c0.505,0.368,1.003,0.729,1.5,1.09c-0.145,0.731-0.296,1.47-0.442,2.202c-0.65,0.365-1.301,0.729-1.957,1.102   c-0.499-0.362-0.996-0.723-1.5-1.09C19.689,38.383,19.833,37.652,19.987,36.925L19.987,36.925z" /><path
       id="path27_1_"
       inkscape:connector-curvature="0"
       fill="#D9E8DE"
       d="M20.008,36.941c0.646-0.357,1.283-0.721,1.922-1.084   c0.491,0.356,0.98,0.713,1.471,1.068c-0.148,0.72-0.288,1.443-0.437,2.162c-0.632,0.356-1.283,0.722-1.92,1.084   c-0.491-0.356-0.981-0.713-1.471-1.068C19.72,38.384,19.873,37.658,20.008,36.941L20.008,36.941z" /><path
       id="path29_1_"
       inkscape:connector-curvature="0"
       fill="#CCDFD1"
       d="M20.037,36.963c0.626-0.349,1.253-0.71,1.885-1.066   c0.484,0.353,0.959,0.697,1.442,1.048c-0.141,0.713-0.292,1.419-0.429,2.123c-0.627,0.349-1.253,0.71-1.885,1.064   c-0.484-0.351-0.959-0.696-1.442-1.047C19.749,38.374,19.9,37.667,20.037,36.963L20.037,36.963z" /><path
       id="path31_1_"
       inkscape:connector-curvature="0"
       fill="#C0D7C6"
       d="M20.066,36.983c0.614-0.348,1.229-0.692,1.85-1.047   c0.477,0.347,0.945,0.687,1.414,1.026c-0.145,0.7-0.284,1.393-0.423,2.084c-0.615,0.346-1.229,0.692-1.846,1.039   c-0.468-0.341-0.937-0.681-1.413-1.026C19.788,38.368,19.926,37.675,20.066,36.983L20.066,36.983z" /><path
       id="path33_1_"
       inkscape:connector-curvature="0"
       fill="#B1CFBA"
       d="M20.095,37.005c0.602-0.345,1.212-0.684,1.81-1.021   c0.461,0.336,0.923,0.671,1.391,1.011c-0.136,0.673-0.277,1.353-0.418,2.032c-0.597,0.337-1.2,0.682-1.802,1.025   c-0.469-0.34-0.93-0.675-1.392-1.01C19.825,38.362,19.958,37.676,20.095,37.005L20.095,37.005z" /><path
       id="path35_1_"
       inkscape:connector-curvature="0"
       fill="#A4C7AF"
       d="M20.123,37.025c0.592-0.33,1.183-0.673,1.774-1.002   c0.455,0.33,0.901,0.654,1.362,0.989c-0.137,0.659-0.273,1.332-0.41,1.992c-0.585,0.336-1.178,0.666-1.768,1.008   c-0.461-0.336-0.908-0.66-1.362-0.99C19.855,38.35,19.994,37.689,20.123,37.025L20.123,37.025z" /><path
       id="path37_1_"
       inkscape:connector-curvature="0"
       fill="#9AC1A7"
       d="M20.152,37.047c0.58-0.329,1.159-0.656,1.739-0.985   c0.447,0.325,0.887,0.646,1.334,0.969c-0.133,0.653-0.264,1.307-0.397,1.959c-0.575,0.32-1.16,0.656-1.74,0.983   c-0.447-0.323-0.887-0.644-1.333-0.968C19.887,38.351,20.025,37.691,20.152,37.047L20.152,37.047z" /><path
       id="path39_1_"
       inkscape:connector-curvature="0"
       fill="#8BBB9D"
       d="M20.181,37.067c0.563-0.318,1.13-0.645,1.704-0.965   c0.433,0.313,0.865,0.628,1.306,0.947c-0.135,0.64-0.27,1.28-0.392,1.919c-0.568,0.313-1.137,0.64-1.698,0.958   c-0.44-0.319-0.873-0.633-1.306-0.948C19.917,38.34,20.053,37.7,20.181,37.067L20.181,37.067z" /><path
       id="path41_1_"
       inkscape:connector-curvature="0"
       fill="#7EB392"
       d="M20.203,37.083c0.556-0.312,1.114-0.624,1.676-0.941   c0.425,0.309,0.843,0.611,1.276,0.927c-0.137,0.627-0.261,1.254-0.386,1.879c-0.556,0.312-1.113,0.624-1.662,0.94   c-0.433-0.314-0.852-0.617-1.277-0.927C19.955,38.334,20.078,37.708,20.203,37.083L20.203,37.083z" /><path
       id="path43_1_"
       inkscape:connector-curvature="0"
       fill="#71AB88"
       d="M20.232,37.103c0.545-0.309,1.083-0.611,1.628-0.922   c0.425,0.309,0.836,0.607,1.255,0.911c-0.126,0.614-0.248,1.221-0.373,1.834c-0.54,0.303-1.084,0.611-1.628,0.921   c-0.418-0.303-0.829-0.602-1.254-0.91C19.985,38.323,20.111,37.71,20.232,37.103L20.232,37.103z" /><path
       id="path45_1_"
       inkscape:connector-curvature="0"
       fill="#63A57F"
       d="M20.26,37.125c0.535-0.296,1.066-0.604,1.593-0.904   c0.411,0.299,0.815,0.593,1.226,0.891c-0.123,0.594-0.244,1.2-0.366,1.795c-0.527,0.3-1.061,0.596-1.593,0.903   c-0.411-0.299-0.814-0.592-1.226-0.891C20.022,38.318,20.144,37.723,20.26,37.125L20.26,37.125z" /><path
       id="path47_1_"
       inkscape:connector-curvature="0"
       fill="#589F76"
       d="M20.289,37.145c0.521-0.293,1.042-0.587,1.557-0.885   c0.404,0.293,0.792,0.576,1.197,0.869c-0.118,0.586-0.234,1.174-0.36,1.755c-0.508,0.291-1.03,0.584-1.552,0.877   c-0.404-0.293-0.793-0.576-1.197-0.868C20.059,38.311,20.178,37.724,20.289,37.145L20.289,37.145z" /><path
       id="path49_1_"
       inkscape:connector-curvature="0"
       fill="#4A996E"
       d="M20.318,37.166c0.504-0.283,1.014-0.574,1.522-0.866   c0.397,0.288,0.778,0.565,1.168,0.849c-0.12,0.574-0.238,1.148-0.353,1.716c-0.503,0.283-1.013,0.575-1.518,0.859   c-0.389-0.283-0.771-0.561-1.168-0.849C20.084,38.307,20.205,37.733,20.318,37.166L20.318,37.166z" /><path
       id="path51_1_"
       inkscape:connector-curvature="0"
       fill="#3C9366"
       d="M20.347,37.187c0.492-0.281,0.99-0.56,1.481-0.841   c0.382,0.277,0.757,0.551,1.139,0.828c-0.109,0.558-0.226,1.114-0.334,1.673c-0.498,0.277-0.99,0.56-1.488,0.836   c-0.382-0.277-0.757-0.55-1.141-0.828C20.122,38.301,20.231,37.742,20.347,37.187L20.347,37.187z" /><path
       id="path53_1_"
       inkscape:connector-curvature="0"
       fill="#288E5C"
       d="M20.376,37.209c0.473-0.273,0.959-0.547,1.446-0.822   c0.375,0.271,0.742,0.538,1.109,0.806c-0.11,0.547-0.222,1.095-0.327,1.635c-0.481,0.268-0.967,0.542-1.453,0.817   c-0.368-0.268-0.735-0.534-1.111-0.807C20.152,38.29,20.263,37.743,20.376,37.209L20.376,37.209z" /><path
       id="path55_1_"
       inkscape:connector-curvature="0"
       fill="#0D8955"
       d="M20.397,37.224c0.475-0.261,0.943-0.527,1.417-0.8   c0.36,0.262,0.721,0.523,1.081,0.786c-0.112,0.535-0.213,1.067-0.32,1.595c-0.468,0.267-0.944,0.526-1.417,0.8   c-0.361-0.263-0.721-0.524-1.082-0.786C20.189,38.284,20.297,37.756,20.397,37.224L20.397,37.224z" /><path
       id="path57_1_"
       inkscape:connector-curvature="0"
       fill="#02844D"
       d="M20.427,37.246c0.463-0.26,0.918-0.523,1.381-0.782   c0.354,0.257,0.701,0.508,1.054,0.765c-0.103,0.521-0.212,1.036-0.314,1.557c-0.458,0.251-0.915,0.515-1.377,0.773   c-0.354-0.257-0.7-0.508-1.053-0.765C20.22,38.273,20.329,37.758,20.427,37.246L20.427,37.246z" /><path
       id="path59_1_"
       inkscape:connector-curvature="0"
       fill="#027F45"
       d="M20.455,37.266c0.446-0.25,0.896-0.507,1.342-0.756   c0.346,0.252,0.685,0.498,1.024,0.744c-0.1,0.5-0.204,1.008-0.303,1.509c-0.445,0.249-0.891,0.499-1.342,0.756   c-0.339-0.246-0.678-0.493-1.024-0.744C20.257,38.267,20.357,37.766,20.455,37.266L20.455,37.266z" /><path
       id="path61_1_"
       inkscape:connector-curvature="0"
       fill="#047C40"
       d="M20.485,37.287c0.432-0.247,0.873-0.489,1.306-0.735   c0.332,0.239,0.663,0.48,1.002,0.727c-0.101,0.488-0.203,0.977-0.304,1.465c-0.427,0.24-0.866,0.494-1.298,0.742   c-0.339-0.246-0.671-0.488-1.002-0.729C20.289,38.268,20.389,37.768,20.485,37.287L20.485,37.287z" /><path
       id="path63_1_"
       inkscape:connector-curvature="0"
       fill="#05773D"
       d="M20.513,37.308c0.416-0.238,0.843-0.479,1.271-0.719   c0.325,0.236,0.643,0.467,0.974,0.707c-0.103,0.476-0.199,0.957-0.297,1.426c-0.415,0.237-0.843,0.477-1.264,0.724   c-0.332-0.241-0.648-0.472-0.974-0.707C20.319,38.257,20.415,37.776,20.513,37.308L20.513,37.308z" /><polygon
       id="polygon65_8_"
       fill="#05733B"
       points="22.723,37.314 22.438,38.706 21.209,39.399 20.264,38.713 20.541,37.329    20.541,37.329 21.778,36.629  " /><polygon
       id="polygon67_1_"
       fill="#FFFFFF"
       points="19.781,36.92 19.321,39.163 17.33,40.295 15.795,39.18 16.248,36.931    16.248,36.931 18.245,35.804  " /><path
       id="path69_1_"
       inkscape:connector-curvature="0"
       fill="#EAF1EB"
       d="M16.277,36.953c0.649-0.365,1.306-0.737,1.961-1.109   c0.498,0.361,1.002,0.728,1.507,1.095c-0.151,0.738-0.309,1.473-0.454,2.203c-0.655,0.373-1.3,0.742-1.954,1.114   c-0.505-0.367-1.01-0.733-1.508-1.095C15.98,38.423,16.126,37.691,16.277,36.953L16.277,36.953z" /><path
       id="path71_1_"
       inkscape:connector-curvature="0"
       fill="#D9E8DE"
       d="M16.305,36.972c0.638-0.362,1.277-0.725,1.922-1.082   c0.49,0.355,0.981,0.712,1.479,1.074c-0.148,0.718-0.295,1.438-0.443,2.155c-0.637,0.364-1.28,0.733-1.919,1.097   c-0.498-0.361-0.988-0.718-1.479-1.073C16.005,38.419,16.158,37.692,16.305,36.972L16.305,36.972z" /><path
       id="path73_1_"
       inkscape:connector-curvature="0"
       fill="#CCDFD1"
       d="M16.334,36.994c0.625-0.36,1.253-0.709,1.886-1.065   c0.484,0.352,0.967,0.702,1.45,1.054c-0.143,0.711-0.288,1.411-0.43,2.122c-0.633,0.356-1.258,0.717-1.886,1.066   c-0.482-0.352-0.965-0.702-1.45-1.054C16.042,38.413,16.185,37.701,16.334,36.994L16.334,36.994z" /><path
       id="path75_1_"
       inkscape:connector-curvature="0"
       fill="#C0D7C6"
       d="M16.363,37.014c0.615-0.346,1.23-0.692,1.843-1.05   c0.476,0.345,0.952,0.689,1.428,1.036c-0.144,0.699-0.284,1.391-0.422,2.083c-0.621,0.354-1.235,0.7-1.851,1.047   c-0.476-0.346-0.952-0.691-1.428-1.038C16.08,38.406,16.219,37.714,16.363,37.014L16.363,37.014z" /><path
       id="path77_1_"
       inkscape:connector-curvature="0"
       fill="#B1CFBA"
       d="M16.392,37.036c0.603-0.345,1.205-0.688,1.808-1.033   c0.468,0.34,0.938,0.681,1.398,1.016c-0.14,0.68-0.273,1.365-0.415,2.045c-0.603,0.344-1.214,0.683-1.816,1.027   c-0.461-0.335-0.93-0.675-1.399-1.017C16.11,38.395,16.251,37.715,16.392,37.036L16.392,37.036z" /><path
       id="path79_1_"
       inkscape:connector-curvature="0"
       fill="#A4C7AF"
       d="M16.413,37.051c0.592-0.329,1.189-0.666,1.775-1.002   c0.461,0.335,0.916,0.665,1.37,0.995c-0.13,0.665-0.272,1.333-0.403,1.997c-0.598,0.337-1.183,0.674-1.781,1.01   c-0.454-0.33-0.908-0.659-1.369-0.994C16.147,38.389,16.278,37.724,16.413,37.051L16.413,37.051z" /><path
       id="path81_1_"
       inkscape:connector-curvature="0"
       fill="#9AC1A7"
       d="M16.443,37.072c0.579-0.327,1.16-0.655,1.74-0.983   c0.446,0.324,0.895,0.649,1.341,0.974c-0.132,0.653-0.265,1.307-0.398,1.959c-0.58,0.328-1.16,0.656-1.745,0.99   c-0.447-0.324-0.894-0.648-1.34-0.973C16.178,38.379,16.31,37.725,16.443,37.072L16.443,37.072z" /><path
       id="path83_1_"
       inkscape:connector-curvature="0"
       fill="#8BBB9D"
       d="M16.471,37.093c0.569-0.313,1.137-0.64,1.704-0.966   c0.44,0.319,0.879,0.639,1.313,0.953c-0.126,0.646-0.262,1.286-0.391,1.919c-0.568,0.326-1.135,0.652-1.704,0.966   c-0.433-0.313-0.873-0.633-1.313-0.952C16.21,38.38,16.345,37.74,16.471,37.093L16.471,37.093z" /><path
       id="path85_1_"
       inkscape:connector-curvature="0"
       fill="#7EB392"
       d="M16.5,37.115c0.557-0.312,1.106-0.629,1.668-0.947   c0.433,0.313,0.858,0.622,1.285,0.932c-0.13,0.634-0.254,1.259-0.386,1.88c-0.55,0.317-1.111,0.636-1.668,0.947   c-0.426-0.309-0.851-0.618-1.284-0.933C16.24,38.369,16.376,37.741,16.5,37.115L16.5,37.115z" /><path
       id="path87_1_"
       inkscape:connector-curvature="0"
       fill="#71AB88"
       d="M16.53,37.135c0.543-0.311,1.089-0.619,1.628-0.922   c0.417,0.305,0.836,0.607,1.254,0.911c-0.114,0.611-0.239,1.226-0.366,1.838c-0.543,0.31-1.088,0.619-1.64,0.925   c-0.418-0.304-0.836-0.607-1.255-0.911C16.278,38.362,16.403,37.749,16.53,37.135L16.53,37.135z" /><path
       id="path89_1_"
       inkscape:connector-curvature="0"
       fill="#63A57F"
       d="M16.558,37.156c0.527-0.301,1.065-0.603,1.593-0.902   c0.41,0.298,0.822,0.597,1.233,0.895c-0.124,0.595-0.251,1.195-0.367,1.794c-0.539,0.303-1.065,0.604-1.598,0.911   c-0.41-0.298-0.822-0.597-1.233-0.896C16.315,38.357,16.43,37.757,16.558,37.156L16.558,37.156z" /><path
       id="path91_1_"
       inkscape:connector-curvature="0"
       fill="#589F76"
       d="M16.587,37.177c0.514-0.298,1.036-0.591,1.557-0.885   c0.396,0.288,0.8,0.581,1.204,0.874c-0.125,0.582-0.243,1.168-0.36,1.755c-0.522,0.293-1.043,0.587-1.557,0.885   c-0.405-0.293-0.809-0.586-1.205-0.874C16.345,38.345,16.462,37.758,16.587,37.177L16.587,37.177z" /><path
       id="path93_1_"
       inkscape:connector-curvature="0"
       fill="#4A996E"
       d="M16.609,37.193c0.511-0.278,1.02-0.57,1.529-0.861   c0.389,0.282,0.778,0.565,1.175,0.854c-0.12,0.573-0.239,1.148-0.354,1.715c-0.509,0.292-1.012,0.576-1.521,0.867   c-0.397-0.288-0.787-0.571-1.176-0.854C16.382,38.339,16.496,37.773,16.609,37.193L16.609,37.193z" /><path
       id="path95_1_"
       inkscape:connector-curvature="0"
       fill="#3C9366"
       d="M16.638,37.214c0.498-0.277,0.99-0.56,1.488-0.836   c0.382,0.276,0.764,0.555,1.147,0.832c-0.117,0.554-0.226,1.114-0.342,1.668c-0.491,0.284-0.995,0.567-1.487,0.85   c-0.382-0.278-0.764-0.555-1.146-0.833C16.408,38.336,16.528,37.774,16.638,37.214L16.638,37.214z" /><path
       id="path97_1_"
       inkscape:connector-curvature="0"
       fill="#288E5C"
       d="M16.666,37.235c0.485-0.275,0.967-0.543,1.453-0.817   c0.367,0.268,0.743,0.54,1.117,0.812c-0.111,0.547-0.217,1.087-0.335,1.629c-0.479,0.28-0.965,0.556-1.451,0.831   c-0.375-0.272-0.75-0.545-1.118-0.812C16.444,38.33,16.556,37.782,16.666,37.235L16.666,37.235z" /><path
       id="path99_1_"
       inkscape:connector-curvature="0"
       fill="#0D8955"
       d="M16.695,37.256c0.468-0.266,0.941-0.538,1.417-0.799   c0.36,0.262,0.721,0.523,1.089,0.791c-0.107,0.527-0.221,1.063-0.328,1.59c-0.474,0.274-0.942,0.539-1.411,0.804   c-0.368-0.267-0.729-0.529-1.089-0.79C16.475,38.318,16.582,37.79,16.695,37.256L16.695,37.256z" /><path
       id="path101_1_"
       inkscape:connector-curvature="0"
       fill="#02844D"
       d="M16.724,37.277c0.456-0.265,0.919-0.521,1.382-0.781   c0.354,0.258,0.707,0.514,1.061,0.771c-0.103,0.521-0.212,1.036-0.314,1.556c-0.463,0.259-0.92,0.522-1.382,0.781   c-0.354-0.257-0.708-0.514-1.062-0.771C16.512,38.313,16.615,37.793,16.724,37.277L16.724,37.277z" /><path
       id="path103_1_"
       inkscape:connector-curvature="0"
       fill="#027F45"
       d="M16.752,37.298c0.446-0.249,0.896-0.506,1.334-0.76   c0.347,0.251,0.692,0.502,1.039,0.753c-0.099,0.502-0.204,1.01-0.303,1.511c-0.451,0.256-0.896,0.506-1.347,0.762   c-0.346-0.251-0.692-0.503-1.039-0.754C16.548,38.306,16.648,37.805,16.752,37.298L16.752,37.298z" /><path
       id="path105_1_"
       inkscape:connector-curvature="0"
       fill="#047C40"
       d="M16.782,37.319c0.433-0.247,0.867-0.495,1.299-0.742   c0.338,0.246,0.678,0.493,1.009,0.733c-0.102,0.487-0.195,0.981-0.295,1.471c-0.434,0.247-0.879,0.495-1.313,0.743   c-0.332-0.24-0.671-0.487-1.009-0.733C16.575,38.302,16.681,37.807,16.782,37.319L16.782,37.319z" /><path
       id="path107_1_"
       inkscape:connector-curvature="0"
       fill="#05773D"
       d="M16.803,37.334c0.428-0.238,0.851-0.472,1.271-0.718   c0.332,0.241,0.657,0.477,0.981,0.712c-0.096,0.482-0.193,0.95-0.29,1.432c-0.428,0.24-0.849,0.484-1.271,0.718   c-0.325-0.235-0.649-0.472-0.98-0.712C16.612,38.297,16.707,37.816,16.803,37.334L16.803,37.334z" /><polygon
       id="polygon109_1_"
       fill="#05733B"
       points="19.019,37.347 18.737,38.739 17.501,39.438 16.549,38.747 16.832,37.355    16.832,37.355 18.068,36.655  " /><polygon
       id="polygon111_1_"
       fill="#FFFFFF"
       points="24.577,40.402 24.123,42.65 22.126,43.778 20.59,42.662 21.052,40.42    21.052,40.42 23.041,39.288  " /><path
       id="path113_1_"
       inkscape:connector-curvature="0"
       fill="#EAF1EB"
       d="M21.08,40.44c0.651-0.364,1.299-0.742,1.955-1.114   c0.505,0.367,1.01,0.733,1.507,1.095c-0.151,0.739-0.302,1.478-0.447,2.209c-0.655,0.372-1.306,0.737-1.961,1.109   c-0.499-0.363-1.003-0.729-1.507-1.095C20.776,41.905,20.929,41.178,21.08,40.44L21.08,40.44z" /><path
       id="path115_1_"
       inkscape:connector-curvature="0"
       fill="#D9E8DE"
       d="M21.109,40.461c0.638-0.362,1.276-0.726,1.914-1.088   c0.498,0.362,0.988,0.718,1.479,1.074c-0.14,0.724-0.288,1.443-0.436,2.162c-0.638,0.362-1.281,0.732-1.927,1.09   c-0.491-0.355-0.98-0.712-1.479-1.073C20.809,41.906,20.961,41.18,21.109,40.461L21.109,40.461z" /><path
       id="path117_1_"
       inkscape:connector-curvature="0"
       fill="#CCDFD1"
       d="M21.13,40.476c0.633-0.354,1.26-0.703,1.886-1.063   c0.483,0.351,0.966,0.7,1.449,1.051c-0.142,0.712-0.279,1.418-0.428,2.124c-0.626,0.361-1.259,0.717-1.887,1.065   c-0.483-0.351-0.966-0.702-1.449-1.053C20.845,41.9,20.989,41.19,21.13,40.476L21.13,40.476z" /><path
       id="path119_1_"
       inkscape:connector-curvature="0"
       fill="#C0D7C6"
       d="M21.16,40.498c0.615-0.346,1.23-0.692,1.851-1.046   c0.475,0.346,0.951,0.691,1.427,1.037c-0.151,0.693-0.291,1.386-0.429,2.078c-0.622,0.354-1.236,0.7-1.843,1.052   c-0.476-0.346-0.952-0.691-1.428-1.037C20.876,41.889,21.015,41.197,21.16,40.498L21.16,40.498z" /><path
       id="path121_1_"
       inkscape:connector-curvature="0"
       fill="#B1CFBA"
       d="M21.188,40.518c0.603-0.344,1.212-0.684,1.816-1.027   c0.461,0.335,0.93,0.676,1.398,1.016c-0.141,0.68-0.281,1.359-0.422,2.04c-0.604,0.343-1.206,0.688-1.809,1.032   c-0.468-0.341-0.937-0.681-1.399-1.017C20.913,41.882,21.047,41.198,21.188,40.518L21.188,40.518z" /><path
       id="path123_1_"
       inkscape:connector-curvature="0"
       fill="#A4C7AF"
       d="M21.217,40.54c0.592-0.33,1.182-0.672,1.775-1.002   c0.454,0.329,0.908,0.659,1.37,0.995c-0.138,0.66-0.274,1.332-0.405,1.997c-0.597,0.337-1.189,0.668-1.779,1.01   c-0.462-0.335-0.916-0.665-1.371-0.995C20.943,41.873,21.081,41.213,21.217,40.54L21.217,40.54L21.217,40.54z" /><path
       id="path125_1_"
       inkscape:connector-curvature="0"
       fill="#9AC1A7"
       d="M21.246,40.56c0.58-0.327,1.159-0.656,1.739-0.983   c0.448,0.324,0.894,0.648,1.342,0.975c-0.133,0.652-0.266,1.306-0.398,1.957c-0.579,0.329-1.16,0.657-1.745,0.992   c-0.447-0.325-0.893-0.649-1.341-0.975C20.98,41.866,21.113,41.214,21.246,40.56L21.246,40.56z" /><path
       id="path127_1_"
       inkscape:connector-curvature="0"
       fill="#8BBB9D"
       d="M21.274,40.581c0.562-0.318,1.13-0.644,1.704-0.965   c0.433,0.314,0.873,0.633,1.313,0.953c-0.133,0.64-0.268,1.281-0.39,1.919c-0.575,0.321-1.143,0.646-1.704,0.967   c-0.44-0.32-0.88-0.64-1.313-0.954C21.007,41.863,21.14,41.222,21.274,40.581L21.274,40.581z" /><path
       id="path129_1_"
       inkscape:connector-curvature="0"
       fill="#7EB392"
       d="M21.303,40.602c0.55-0.317,1.106-0.628,1.669-0.947   c0.425,0.309,0.851,0.618,1.283,0.932c-0.129,0.635-0.26,1.255-0.384,1.88c-0.557,0.313-1.112,0.637-1.668,0.948   c-0.433-0.313-0.859-0.624-1.284-0.933C21.043,41.857,21.172,41.223,21.303,40.602L21.303,40.602z" /><path
       id="path131_1_"
       inkscape:connector-curvature="0"
       fill="#71AB88"
       d="M21.325,40.618c0.545-0.31,1.089-0.619,1.636-0.916   c0.418,0.304,0.837,0.608,1.255,0.911c-0.121,0.606-0.247,1.22-0.373,1.833c-0.544,0.31-1.089,0.619-1.633,0.93   c-0.418-0.304-0.837-0.607-1.255-0.911C21.073,41.845,21.2,41.232,21.325,40.618L21.325,40.618z" /><path
       id="path133_1_"
       inkscape:connector-curvature="0"
       fill="#63A57F"
       d="M21.355,40.639c0.532-0.296,1.065-0.604,1.592-0.904   c0.412,0.299,0.822,0.598,1.233,0.896c-0.124,0.594-0.244,1.2-0.367,1.793c-0.532,0.309-1.065,0.604-1.598,0.912   c-0.411-0.299-0.822-0.597-1.233-0.896C21.11,41.839,21.233,41.245,21.355,40.639L21.355,40.639z" /><path
       id="path135_1_"
       inkscape:connector-curvature="0"
       fill="#589F76"
       d="M21.383,40.66c0.521-0.292,1.042-0.586,1.556-0.885   c0.404,0.293,0.809,0.588,1.206,0.875c-0.119,0.587-0.236,1.174-0.361,1.754c-0.514,0.299-1.036,0.592-1.558,0.887   c-0.396-0.289-0.8-0.582-1.204-0.875C21.147,41.834,21.266,41.247,21.383,40.66L21.383,40.66z" /><path
       id="path137_1_"
       inkscape:connector-curvature="0"
       fill="#4A996E"
       d="M21.413,40.681c0.503-0.283,1.012-0.575,1.521-0.867   c0.397,0.288,0.787,0.571,1.176,0.854c-0.12,0.574-0.24,1.149-0.346,1.721c-0.516,0.287-1.02,0.57-1.529,0.861   c-0.39-0.282-0.779-0.565-1.175-0.854C21.179,41.823,21.291,41.255,21.413,40.681L21.413,40.681z" /><path
       id="path139_1_"
       inkscape:connector-curvature="0"
       fill="#3C9366"
       d="M21.441,40.702c0.491-0.281,0.99-0.559,1.481-0.841   c0.382,0.277,0.765,0.556,1.147,0.833c-0.109,0.56-0.226,1.114-0.335,1.674c-0.498,0.277-0.995,0.566-1.494,0.844   c-0.382-0.278-0.765-0.556-1.147-0.834C21.21,41.824,21.324,41.257,21.441,40.702L21.441,40.702z" /><path
       id="path141_1_"
       inkscape:connector-curvature="0"
       fill="#288E5C"
       d="M21.469,40.723c0.486-0.275,0.959-0.548,1.446-0.822   c0.375,0.272,0.75,0.544,1.117,0.812c-0.11,0.547-0.216,1.088-0.327,1.634c-0.486,0.274-0.972,0.551-1.458,0.825   c-0.368-0.268-0.743-0.539-1.118-0.813C21.24,41.812,21.359,41.271,21.469,40.723L21.469,40.723z" /><path
       id="path143_1_"
       inkscape:connector-curvature="0"
       fill="#0D8955"
       d="M21.498,40.744c0.469-0.266,0.942-0.538,1.41-0.805   c0.368,0.268,0.729,0.529,1.089,0.792c-0.101,0.533-0.213,1.067-0.321,1.594c-0.475,0.274-0.941,0.54-1.417,0.801   c-0.361-0.263-0.722-0.524-1.089-0.792C21.278,41.806,21.386,41.279,21.498,40.744L21.498,40.744z" /><path
       id="path145_1_"
       inkscape:connector-curvature="0"
       fill="#02844D"
       d="M21.519,40.759c0.463-0.259,0.919-0.521,1.382-0.78   c0.354,0.257,0.707,0.513,1.061,0.771c-0.103,0.52-0.206,1.041-0.314,1.555c-0.457,0.265-0.92,0.522-1.382,0.781   c-0.354-0.257-0.708-0.514-1.061-0.77C21.308,41.796,21.417,41.281,21.519,40.759L21.519,40.759z" /><path
       id="path147_1_"
       inkscape:connector-curvature="0"
       fill="#027F45"
       d="M21.549,40.781c0.444-0.249,0.896-0.506,1.341-0.756   c0.347,0.252,0.692,0.503,1.039,0.755c-0.106,0.496-0.211,1.004-0.31,1.504c-0.452,0.257-0.897,0.506-1.34,0.768   c-0.347-0.252-0.693-0.503-1.039-0.755C21.345,41.79,21.444,41.289,21.549,40.781L21.549,40.781z" /><path
       id="path149_1_"
       inkscape:connector-curvature="0"
       fill="#047C40"
       d="M21.578,40.801c0.433-0.247,0.874-0.489,1.306-0.736   c0.332,0.241,0.67,0.487,1.01,0.733c-0.101,0.487-0.203,0.976-0.303,1.465c-0.434,0.247-0.871,0.502-1.305,0.749   c-0.339-0.246-0.678-0.492-1.01-0.733C21.377,41.791,21.476,41.29,21.578,40.801L21.578,40.801z" /><path
       id="path151_1_"
       inkscape:connector-curvature="0"
       fill="#05773D"
       d="M21.607,40.823c0.427-0.24,0.842-0.479,1.27-0.72   c0.325,0.237,0.649,0.473,0.981,0.713c-0.103,0.478-0.194,0.95-0.29,1.431c-0.429,0.24-0.855,0.48-1.271,0.72   c-0.332-0.241-0.656-0.478-0.981-0.713C21.408,41.779,21.51,41.304,21.607,40.823L21.607,40.823z" /><polygon
       id="polygon153_1_"
       fill="#05733B"
       points="23.824,40.836 23.539,42.225 22.305,42.926 21.351,42.234 21.636,40.843    21.636,40.843 22.87,40.143  " /><polygon
       id="polygon155_1_"
       fill="#FFFFFF"
       points="22.336,33.4 21.876,35.642 19.886,36.775 18.35,35.66 18.804,33.412    18.804,33.412 20.801,32.285  " /><path
       id="path157_1_"
       inkscape:connector-curvature="0"
       fill="#EAF1EB"
       d="M18.833,33.432c0.651-0.364,1.306-0.736,1.957-1.102   c0.497,0.361,1.003,0.729,1.507,1.095c-0.146,0.731-0.302,1.465-0.449,2.196c-0.655,0.372-1.304,0.75-1.955,1.115   c-0.505-0.367-1.009-0.733-1.507-1.095C18.531,34.911,18.682,34.172,18.833,33.432L18.833,33.432z" /><path
       id="path159_1_"
       inkscape:connector-curvature="0"
       fill="#D9E8DE"
       d="M18.861,33.453c0.638-0.362,1.276-0.725,1.921-1.082   c0.49,0.355,0.981,0.712,1.479,1.074c-0.148,0.718-0.295,1.438-0.443,2.156c-0.644,0.37-1.281,0.732-1.919,1.096   c-0.499-0.362-0.988-0.718-1.479-1.074C18.561,34.899,18.708,34.18,18.861,33.453L18.861,33.453z" /><path
       id="path161_1_"
       inkscape:connector-curvature="0"
       fill="#CCDFD1"
       d="M18.89,33.474c0.621-0.354,1.254-0.709,1.887-1.064   c0.483,0.351,0.966,0.701,1.45,1.053c-0.143,0.711-0.293,1.418-0.43,2.123c-0.633,0.355-1.258,0.717-1.891,1.072   c-0.484-0.351-0.967-0.702-1.45-1.052C18.598,34.892,18.741,34.182,18.89,33.474L18.89,33.474z" /><path
       id="path163_1_"
       inkscape:connector-curvature="0"
       fill="#C0D7C6"
       d="M18.919,33.495c0.615-0.346,1.231-0.691,1.843-1.051   c0.477,0.347,0.952,0.691,1.429,1.037c-0.145,0.699-0.284,1.392-0.422,2.083c-0.621,0.354-1.236,0.7-1.851,1.047   c-0.476-0.346-0.952-0.691-1.428-1.037C18.636,34.887,18.775,34.195,18.919,33.495L18.919,33.495z" /><path
       id="path165_1_"
       inkscape:connector-curvature="0"
       fill="#B1CFBA"
       d="M18.948,33.515c0.598-0.336,1.201-0.681,1.802-1.025   c0.47,0.341,0.939,0.682,1.4,1.017c-0.142,0.679-0.275,1.364-0.411,2.037c-0.603,0.344-1.212,0.684-1.815,1.027   c-0.461-0.334-0.93-0.676-1.399-1.016C18.666,34.876,18.807,34.196,18.948,33.515L18.948,33.515z" /><path
       id="path167_1_"
       inkscape:connector-curvature="0"
       fill="#A4C7AF"
       d="M18.97,33.532c0.593-0.329,1.189-0.667,1.774-1.002   c0.462,0.335,0.917,0.665,1.371,0.995c-0.131,0.665-0.273,1.332-0.404,1.998c-0.598,0.337-1.183,0.672-1.781,1.01   c-0.454-0.33-0.908-0.661-1.37-0.996C18.703,34.87,18.834,34.205,18.97,33.532L18.97,33.532z" /><path
       id="path169_1_"
       inkscape:connector-curvature="0"
       fill="#9AC1A7"
       d="M18.998,33.553c0.58-0.328,1.161-0.655,1.74-0.985   c0.447,0.325,0.895,0.65,1.342,0.975c-0.133,0.653-0.266,1.307-0.398,1.959c-0.585,0.335-1.165,0.664-1.745,0.991   c-0.447-0.325-0.894-0.649-1.341-0.975C18.727,34.866,18.861,34.214,18.998,33.553L18.998,33.553z" /><path
       id="path171_1_"
       inkscape:connector-curvature="0"
       fill="#8BBB9D"
       d="M19.028,33.575c0.568-0.314,1.137-0.641,1.703-0.966   c0.44,0.318,0.881,0.639,1.313,0.952c-0.127,0.646-0.262,1.286-0.392,1.919c-0.566,0.327-1.134,0.652-1.709,0.974   c-0.433-0.314-0.872-0.633-1.312-0.953C18.766,34.86,18.9,34.22,19.028,33.575L19.028,33.575z" /><path
       id="path173_1_"
       inkscape:connector-curvature="0"
       fill="#7EB392"
       d="M19.057,33.595c0.557-0.312,1.106-0.628,1.664-0.94   c0.432,0.313,0.858,0.623,1.283,0.932c-0.125,0.626-0.248,1.253-0.378,1.873c-0.556,0.324-1.113,0.637-1.669,0.947   c-0.425-0.309-0.851-0.617-1.284-0.932C18.795,34.849,18.927,34.228,19.057,33.595L19.057,33.595z" /><path
       id="path175_1_"
       inkscape:connector-curvature="0"
       fill="#71AB88"
       d="M19.085,33.616c0.54-0.303,1.083-0.611,1.628-0.922   c0.418,0.305,0.837,0.607,1.255,0.911c-0.118,0.619-0.245,1.232-0.366,1.838c-0.544,0.311-1.088,0.62-1.641,0.925   c-0.417-0.304-0.836-0.607-1.254-0.911C18.832,34.842,18.959,34.229,19.085,33.616L19.085,33.616z" /><path
       id="path177_1_"
       inkscape:connector-curvature="0"
       fill="#63A57F"
       d="M19.114,33.636c0.526-0.3,1.06-0.595,1.593-0.903   c0.411,0.299,0.822,0.598,1.233,0.896c-0.129,0.602-0.25,1.196-0.367,1.794c-0.539,0.302-1.066,0.604-1.598,0.911   c-0.411-0.299-0.822-0.597-1.233-0.896C18.871,34.838,18.986,34.238,19.114,33.636L19.114,33.636z" /><path
       id="path179_1_"
       inkscape:connector-curvature="0"
       fill="#589F76"
       d="M19.142,33.658c0.514-0.298,1.036-0.592,1.558-0.885   c0.396,0.287,0.8,0.581,1.205,0.875c-0.125,0.581-0.243,1.168-0.36,1.753c-0.521,0.294-1.048,0.595-1.563,0.895   c-0.404-0.294-0.808-0.588-1.205-0.876C18.895,34.834,19.018,34.239,19.142,33.658L19.142,33.658z" /><path
       id="path181_1_"
       inkscape:connector-curvature="0"
       fill="#4A996E"
       d="M19.165,33.673c0.51-0.278,1.019-0.57,1.523-0.854   c0.389,0.282,0.778,0.564,1.175,0.853c-0.114,0.567-0.233,1.143-0.348,1.708c-0.509,0.292-1.018,0.583-1.521,0.867   c-0.397-0.288-0.787-0.571-1.176-0.854C18.933,34.827,19.053,34.254,19.165,33.673L19.165,33.673z" /><path
       id="path183_1_"
       inkscape:connector-curvature="0"
       fill="#3C9366"
       d="M19.193,33.694c0.498-0.276,0.991-0.558,1.488-0.836   c0.383,0.278,0.765,0.556,1.147,0.834c-0.116,0.554-0.226,1.114-0.342,1.668c-0.497,0.29-0.995,0.566-1.485,0.849   c-0.383-0.277-0.765-0.556-1.147-0.834C18.963,34.816,19.079,34.262,19.193,33.694L19.193,33.694z" /><path
       id="path185_1_"
       inkscape:connector-curvature="0"
       fill="#288E5C"
       d="M19.223,33.715c0.48-0.268,0.965-0.543,1.452-0.817   c0.367,0.268,0.743,0.539,1.118,0.813c-0.111,0.547-0.223,1.093-0.335,1.628c-0.479,0.28-0.965,0.556-1.451,0.831   c-0.375-0.272-0.75-0.545-1.117-0.812C18.999,34.81,19.11,34.262,19.223,33.715L19.223,33.715z" /><path
       id="path187_1_"
       inkscape:connector-curvature="0"
       fill="#0D8955"
       d="M19.251,33.737c0.469-0.267,0.938-0.531,1.418-0.8   c0.36,0.262,0.722,0.524,1.089,0.791c-0.113,0.535-0.221,1.063-0.328,1.59c-0.474,0.272-0.942,0.539-1.416,0.813   c-0.368-0.268-0.729-0.529-1.089-0.792C19.031,34.798,19.138,34.27,19.251,33.737L19.251,33.737z" /><path
       id="path189_1_"
       inkscape:connector-curvature="0"
       fill="#02844D"
       d="M19.279,33.757c0.457-0.265,0.92-0.522,1.377-0.773   c0.353,0.257,0.707,0.514,1.061,0.77c-0.097,0.514-0.207,1.027-0.309,1.549c-0.463,0.259-0.919,0.522-1.383,0.781   c-0.353-0.257-0.707-0.514-1.061-0.771C19.067,34.793,19.17,34.272,19.279,33.757L19.279,33.757z" /><path
       id="path191_1_"
       inkscape:connector-curvature="0"
       fill="#027F45"
       d="M19.309,33.778c0.446-0.249,0.896-0.506,1.334-0.761   c0.347,0.252,0.693,0.504,1.039,0.755c-0.099,0.501-0.204,1.008-0.303,1.51c-0.451,0.257-0.902,0.513-1.347,0.762   c-0.346-0.251-0.693-0.503-1.04-0.754C19.1,34.795,19.205,34.287,19.309,33.778L19.309,33.778z" /><path
       id="path193_1_"
       inkscape:connector-curvature="0"
       fill="#047C40"
       d="M19.337,33.798c0.433-0.246,0.867-0.494,1.298-0.741   c0.339,0.246,0.678,0.492,1.01,0.733c-0.101,0.487-0.195,0.981-0.296,1.47c-0.438,0.255-0.878,0.497-1.312,0.744   c-0.332-0.24-0.671-0.487-1.01-0.733C19.13,34.783,19.231,34.296,19.337,33.798L19.337,33.798z" /><path
       id="path195_1_"
       inkscape:connector-curvature="0"
       fill="#05773D"
       d="M19.359,33.815c0.422-0.232,0.85-0.473,1.271-0.719   c0.331,0.24,0.656,0.477,0.98,0.712c-0.097,0.481-0.199,0.957-0.29,1.432c-0.428,0.24-0.849,0.485-1.277,0.725   c-0.325-0.236-0.649-0.472-0.98-0.711C19.167,34.778,19.263,34.297,19.359,33.815L19.359,33.815z" /><polygon
       id="polygon197_1_"
       fill="#05733B"
       points="21.575,33.827 21.292,35.218 20.057,35.919 19.104,35.228 19.389,33.837    19.389,33.837 20.623,33.135  " /><polygon
       id="polygon199_1_"
       fill="#FFFFFF"
       points="27.153,36.854 26.7,39.102 24.703,40.23 23.166,39.114 23.628,36.872    23.628,36.872 25.618,35.739  " /><path
       id="path201_1_"
       inkscape:connector-curvature="0"
       fill="#EAF1EB"
       d="M23.657,36.892c0.655-0.373,1.3-0.742,1.954-1.114   c0.505,0.367,1.01,0.733,1.508,1.095c-0.15,0.738-0.296,1.47-0.448,2.208c-0.649,0.365-1.305,0.737-1.961,1.109   c-0.498-0.361-1.002-0.728-1.507-1.095C23.353,38.357,23.512,37.624,23.657,36.892L23.657,36.892z" /><path
       id="path203_1_"
       inkscape:connector-curvature="0"
       fill="#D9E8DE"
       d="M23.685,36.913c0.638-0.363,1.282-0.733,1.919-1.096   c0.498,0.361,0.988,0.718,1.479,1.073c-0.141,0.725-0.293,1.451-0.44,2.171c-0.638,0.362-1.277,0.725-1.922,1.082   c-0.49-0.355-0.979-0.712-1.479-1.074C23.391,38.351,23.538,37.631,23.685,36.913L23.685,36.913z" /><path
       id="path205_1_"
       inkscape:connector-curvature="0"
       fill="#CCDFD1"
       d="M23.707,36.929c0.633-0.356,1.266-0.712,1.886-1.065   c0.482,0.351,0.966,0.701,1.45,1.054c-0.138,0.703-0.28,1.415-0.43,2.122c-0.625,0.36-1.252,0.709-1.886,1.065   c-0.483-0.352-0.967-0.702-1.45-1.054C23.428,38.344,23.565,37.64,23.707,36.929L23.707,36.929z" /><path
       id="path207_1_"
       inkscape:connector-curvature="0"
       fill="#C0D7C6"
       d="M23.736,36.95c0.621-0.354,1.235-0.7,1.852-1.046   c0.476,0.345,0.951,0.69,1.428,1.036c-0.146,0.687-0.286,1.379-0.43,2.079c-0.616,0.346-1.23,0.691-1.844,1.05   c-0.476-0.345-0.952-0.689-1.428-1.036C23.457,38.334,23.597,37.641,23.736,36.95L23.736,36.95z" /><path
       id="path209_1_"
       inkscape:connector-curvature="0"
       fill="#B1CFBA"
       d="M23.765,36.97c0.602-0.344,1.213-0.683,1.815-1.027   c0.461,0.335,0.93,0.676,1.398,1.016c-0.141,0.68-0.281,1.359-0.422,2.039c-0.603,0.345-1.206,0.688-1.809,1.033   c-0.468-0.34-0.937-0.681-1.398-1.016C23.49,38.336,23.623,37.65,23.765,36.97L23.765,36.97z" /><path
       id="path211_1_"
       inkscape:connector-curvature="0"
       fill="#A4C7AF"
       d="M23.793,36.992c0.598-0.337,1.183-0.673,1.781-1.01   c0.454,0.329,0.908,0.659,1.369,0.994c-0.142,0.668-0.273,1.333-0.41,2.006c-0.591,0.329-1.188,0.667-1.774,1.002   c-0.461-0.335-0.917-0.665-1.37-0.995C23.52,38.324,23.663,37.656,23.793,36.992L23.793,36.992L23.793,36.992z" /><path
       id="path213_1_"
       inkscape:connector-curvature="0"
       fill="#9AC1A7"
       d="M23.822,37.012c0.581-0.328,1.161-0.656,1.746-0.99   c0.447,0.324,0.894,0.648,1.34,0.973c-0.137,0.659-0.27,1.313-0.402,1.966c-0.58,0.328-1.16,0.656-1.74,0.984   c-0.446-0.324-0.895-0.649-1.341-0.974C23.558,38.318,23.69,37.665,23.822,37.012L23.822,37.012z" /><path
       id="path215_1_"
       inkscape:connector-curvature="0"
       fill="#8BBB9D"
       d="M23.851,37.034c0.568-0.326,1.135-0.652,1.704-0.967   c0.433,0.314,0.874,0.634,1.313,0.953c-0.13,0.634-0.265,1.273-0.392,1.919c-0.569,0.314-1.136,0.641-1.703,0.967   c-0.44-0.319-0.88-0.64-1.313-0.954C23.587,38.307,23.723,37.667,23.851,37.034L23.851,37.034z" /><path
       id="path217_1_"
       inkscape:connector-curvature="0"
       fill="#7EB392"
       d="M23.88,37.054c0.554-0.325,1.112-0.636,1.668-0.947   c0.426,0.31,0.851,0.618,1.284,0.933c-0.124,0.625-0.255,1.246-0.384,1.879c-0.558,0.312-1.107,0.629-1.669,0.947   c-0.433-0.313-0.857-0.622-1.284-0.932C23.625,38.3,23.749,37.675,23.88,37.054L23.88,37.054z" /><path
       id="path219_1_"
       inkscape:connector-curvature="0"
       fill="#71AB88"
       d="M23.903,37.071c0.544-0.311,1.088-0.62,1.64-0.925   c0.418,0.304,0.836,0.606,1.255,0.911c-0.126,0.613-0.252,1.228-0.378,1.841c-0.544,0.31-1.089,0.619-1.628,0.922   c-0.418-0.305-0.836-0.607-1.254-0.911C23.65,38.298,23.776,37.683,23.903,37.071L23.903,37.071z" /><path
       id="path221_1_"
       inkscape:connector-curvature="0"
       fill="#63A57F"
       d="M23.931,37.091c0.539-0.303,1.065-0.604,1.598-0.911   c0.41,0.299,0.822,0.598,1.233,0.896c-0.128,0.601-0.244,1.2-0.372,1.802c-0.526,0.301-1.065,0.602-1.593,0.902   c-0.41-0.298-0.822-0.598-1.233-0.896C23.686,38.291,23.815,37.69,23.931,37.091L23.931,37.091z" /><path
       id="path223_1_"
       inkscape:connector-curvature="0"
       fill="#589F76"
       d="M23.959,37.112c0.522-0.293,1.043-0.587,1.557-0.885   c0.405,0.293,0.809,0.586,1.206,0.874c-0.118,0.587-0.236,1.174-0.361,1.755c-0.513,0.298-1.036,0.591-1.557,0.885   c-0.396-0.288-0.8-0.581-1.204-0.874C23.724,38.285,23.842,37.699,23.959,37.112L23.959,37.112z" /><path
       id="path225_1_"
       inkscape:connector-curvature="0"
       fill="#4A996E"
       d="M23.989,37.133c0.509-0.292,1.012-0.576,1.521-0.867   c0.397,0.288,0.787,0.571,1.176,0.854c-0.12,0.574-0.234,1.14-0.346,1.72c-0.511,0.278-1.02,0.57-1.529,0.86   c-0.39-0.283-0.779-0.565-1.175-0.853C23.755,38.275,23.874,37.699,23.989,37.133L23.989,37.133z" /><path
       id="path227_1_"
       inkscape:connector-curvature="0"
       fill="#3C9366"
       d="M24.017,37.154c0.491-0.283,0.995-0.566,1.486-0.85   c0.383,0.279,0.765,0.556,1.147,0.834c-0.11,0.56-0.231,1.121-0.34,1.681c-0.498,0.277-0.99,0.56-1.488,0.836   c-0.383-0.277-0.764-0.555-1.147-0.832C23.792,38.269,23.901,37.709,24.017,37.154L24.017,37.154z" /><path
       id="path229_1_"
       inkscape:connector-curvature="0"
       fill="#288E5C"
       d="M24.046,37.175c0.486-0.275,0.965-0.556,1.451-0.831   c0.374,0.272,0.75,0.545,1.117,0.813c-0.11,0.547-0.222,1.095-0.333,1.642c-0.486,0.274-0.966,0.542-1.453,0.817   c-0.367-0.268-0.743-0.54-1.117-0.813C23.823,38.256,23.935,37.722,24.046,37.175L24.046,37.175z" /><path
       id="path231_1_"
       inkscape:connector-curvature="0"
       fill="#0D8955"
       d="M24.075,37.196c0.474-0.273,0.942-0.538,1.411-0.804   c0.368,0.267,0.729,0.528,1.089,0.79c-0.101,0.533-0.208,1.062-0.321,1.596c-0.469,0.266-0.942,0.538-1.418,0.799   c-0.36-0.262-0.721-0.523-1.088-0.791C23.854,38.258,23.967,37.722,24.075,37.196L24.075,37.196z" /><path
       id="path233_1_"
       inkscape:connector-curvature="0"
       fill="#02844D"
       d="M24.096,37.212c0.464-0.259,0.92-0.521,1.382-0.781   c0.354,0.257,0.707,0.513,1.061,0.771c-0.103,0.52-0.206,1.04-0.314,1.556c-0.456,0.265-0.92,0.521-1.382,0.78   c-0.354-0.256-0.707-0.513-1.061-0.771C23.886,38.247,23.994,37.732,24.096,37.212L24.096,37.212z" /><path
       id="path235_1_"
       inkscape:connector-curvature="0"
       fill="#027F45"
       d="M24.125,37.233c0.451-0.257,0.896-0.507,1.347-0.763   c0.346,0.251,0.692,0.503,1.039,0.754c-0.111,0.503-0.21,1.003-0.315,1.512c-0.445,0.249-0.896,0.506-1.334,0.76   c-0.346-0.251-0.692-0.503-1.039-0.755C23.922,38.241,24.027,37.733,24.125,37.233L24.125,37.233z" /><path
       id="path237_1_"
       inkscape:connector-curvature="0"
       fill="#047C40"
       d="M24.154,37.254c0.434-0.248,0.879-0.497,1.313-0.744   c0.332,0.241,0.671,0.487,1.009,0.733c-0.101,0.488-0.208,0.982-0.309,1.472c-0.433,0.247-0.867,0.495-1.299,0.742   c-0.339-0.246-0.677-0.492-1.009-0.733C23.96,38.236,24.053,37.741,24.154,37.254L24.154,37.254z" /><path
       id="path239_1_"
       inkscape:connector-curvature="0"
       fill="#05773D"
       d="M24.183,37.275c0.428-0.241,0.848-0.486,1.271-0.719   c0.325,0.235,0.648,0.471,0.98,0.712c-0.098,0.469-0.193,0.949-0.29,1.432c-0.428,0.238-0.85,0.473-1.271,0.718   c-0.332-0.241-0.657-0.477-0.981-0.713C23.989,38.223,24.087,37.756,24.183,37.275L24.183,37.275z" /><polygon
       id="polygon241_1_"
       fill="#05733B"
       points="26.4,37.287 26.116,38.678 24.881,39.379 23.929,38.686 24.211,37.296    24.211,37.296 25.447,36.594  " /><polygon
       id="polygon243_1_"
       fill="#FFFFFF"
       points="25.807,34.84 25.684,35.466 23.687,36.594 22.157,35.483 22.619,33.24    22.619,33.24 23.168,32.924  " /><path
       id="path245_1_"
       inkscape:connector-curvature="0"
       fill="#EAF1EB"
       d="M22.637,33.276c0.187-0.106,0.362-0.211,0.544-0.31   c0.865,0.628,1.724,1.252,2.589,1.88c-0.044,0.199-0.083,0.403-0.133,0.608c-0.643,0.37-1.294,0.734-1.95,1.107   c-0.505-0.367-0.996-0.723-1.5-1.09C22.339,34.734,22.491,34.006,22.637,33.276L22.637,33.276L22.637,33.276z" /><path
       id="path247_1_"
       inkscape:connector-curvature="0"
       fill="#D9E8DE"
       d="M22.66,33.304c0.176-0.104,0.353-0.195,0.527-0.3   c0.851,0.617,1.687,1.225,2.539,1.843c-0.045,0.199-0.078,0.396-0.123,0.594c-0.638,0.362-1.276,0.726-1.913,1.089   c-0.491-0.357-0.974-0.708-1.471-1.068C22.365,34.743,22.513,34.023,22.66,33.304L22.66,33.304L22.66,33.304z" /><path
       id="path249_1_"
       inkscape:connector-curvature="0"
       fill="#CCDFD1"
       d="M22.678,33.339c0.176-0.104,0.353-0.195,0.522-0.293   c0.831,0.604,1.652,1.2,2.481,1.803c-0.033,0.196-0.072,0.388-0.117,0.586c-0.621,0.354-1.254,0.709-1.875,1.063   c-0.483-0.351-0.959-0.696-1.442-1.047C22.392,34.751,22.542,34.045,22.678,33.339L22.678,33.339L22.678,33.339z" /><path
       id="path251_1_"
       inkscape:connector-curvature="0"
       fill="#C0D7C6"
       d="M22.702,33.368c0.165-0.09,0.334-0.188,0.512-0.279   c0.808,0.586,1.615,1.173,2.43,1.765c-0.04,0.191-0.079,0.384-0.114,0.568c-0.615,0.346-1.224,0.697-1.838,1.044   c-0.477-0.347-0.938-0.682-1.414-1.027C22.424,34.752,22.563,34.06,22.702,33.368L22.702,33.368z" /><path
       id="path253_1_"
       inkscape:connector-curvature="0"
       fill="#B1CFBA"
       d="M22.721,33.403c0.164-0.089,0.333-0.188,0.497-0.276   c0.794,0.576,1.588,1.152,2.381,1.729c-0.035,0.183-0.075,0.375-0.11,0.559c-0.602,0.345-1.2,0.683-1.797,1.02   c-0.461-0.335-0.916-0.665-1.378-1.001C22.452,34.76,22.58,34.083,22.721,33.403L22.721,33.403z" /><path
       id="path255_1_"
       inkscape:connector-curvature="0"
       fill="#A4C7AF"
       d="M22.746,33.444c0.158-0.095,0.323-0.185,0.492-0.282   c0.78,0.565,1.551,1.126,2.33,1.691c-0.047,0.187-0.082,0.37-0.117,0.555c-0.592,0.329-1.177,0.666-1.756,0.994   c-0.455-0.331-0.901-0.655-1.349-0.979C22.47,34.763,22.608,34.103,22.746,33.444L22.746,33.444L22.746,33.444z" /><path
       id="path257_1_"
       inkscape:connector-curvature="0"
       fill="#9AC1A7"
       d="M22.77,33.472c0.152-0.089,0.316-0.178,0.473-0.273   c0.765,0.556,1.515,1.101,2.279,1.655c-0.034,0.185-0.075,0.362-0.105,0.54c-0.58,0.327-1.154,0.649-1.721,0.975   c-0.447-0.324-0.88-0.639-1.32-0.958C22.502,34.764,22.63,34.119,22.77,33.472L22.77,33.472z" /><path
       id="path259_1_"
       inkscape:connector-curvature="0"
       fill="#8BBB9D"
       d="M22.788,33.507c0.151-0.088,0.304-0.175,0.468-0.266   c0.743,0.539,1.478,1.072,2.228,1.618c-0.042,0.18-0.078,0.352-0.115,0.522c-0.555,0.323-1.116,0.643-1.679,0.962   c-0.432-0.314-0.858-0.624-1.29-0.938C22.529,34.773,22.659,34.139,22.788,33.507L22.788,33.507z" /><path
       id="path261_1_"
       inkscape:connector-curvature="0"
       fill="#7EB392"
       d="M22.807,33.543c0.151-0.088,0.304-0.175,0.457-0.264   c0.729,0.528,1.449,1.052,2.178,1.581c-0.038,0.172-0.074,0.344-0.11,0.517c-0.545,0.309-1.089,0.619-1.639,0.936   c-0.426-0.31-0.844-0.612-1.263-0.917C22.561,34.775,22.681,34.156,22.807,33.543L22.807,33.543z" /><path
       id="path263_1_"
       inkscape:connector-curvature="0"
       fill="#71AB88"
       d="M22.83,33.57c0.146-0.08,0.299-0.168,0.446-0.248   c0.706,0.513,1.412,1.025,2.121,1.54c-0.031,0.164-0.068,0.336-0.1,0.5c-0.532,0.308-1.072,0.61-1.61,0.912   c-0.411-0.298-0.814-0.592-1.227-0.891C22.581,34.779,22.71,34.177,22.83,33.57L22.83,33.57L22.83,33.57z" /><path
       id="path265_1_"
       inkscape:connector-curvature="0"
       fill="#63A57F"
       d="M22.848,33.606c0.147-0.08,0.294-0.162,0.434-0.247   c0.699,0.508,1.384,1.005,2.077,1.509c-0.031,0.164-0.071,0.323-0.102,0.488c-0.521,0.293-1.048,0.593-1.569,0.887   c-0.396-0.288-0.793-0.576-1.198-0.87C22.608,34.787,22.732,34.193,22.848,33.606L22.848,33.606L22.848,33.606z" /><path
       id="path267_1_"
       inkscape:connector-curvature="0"
       fill="#589F76"
       d="M22.867,33.641c0.146-0.081,0.293-0.161,0.428-0.24   c0.677,0.492,1.348,0.979,2.019,1.466c-0.026,0.158-0.065,0.318-0.096,0.482c-0.503,0.283-1.021,0.569-1.529,0.861   c-0.39-0.282-0.778-0.565-1.168-0.848C22.64,34.788,22.76,34.214,22.867,33.641L22.867,33.641z" /><path
       id="path269_1_"
       inkscape:connector-curvature="0"
       fill="#4A996E"
       d="M22.898,33.675c0.134-0.079,0.269-0.157,0.41-0.231   c0.656,0.477,1.306,0.948,1.969,1.43c-0.033,0.152-0.066,0.305-0.092,0.462c-0.504,0.283-0.995,0.565-1.493,0.843   c-0.383-0.277-0.757-0.55-1.14-0.827C22.667,34.797,22.776,34.237,22.898,33.675L22.898,33.675z" /><path
       id="path271_1_"
       inkscape:connector-curvature="0"
       fill="#3C9366"
       d="M22.915,33.711c0.135-0.079,0.27-0.157,0.399-0.229   c0.641,0.465,1.275,0.926,1.918,1.393c-0.028,0.145-0.062,0.297-0.087,0.454c-0.486,0.274-0.967,0.543-1.454,0.817   c-0.375-0.272-0.735-0.534-1.11-0.806C22.692,34.794,22.805,34.257,22.915,33.711L22.915,33.711z" /><path
       id="path273_1_"
       inkscape:connector-curvature="0"
       fill="#288E5C"
       d="M22.934,33.746c0.135-0.079,0.263-0.15,0.392-0.222   c0.621,0.45,1.241,0.901,1.868,1.356c-0.027,0.145-0.056,0.289-0.096,0.437c-0.469,0.265-0.937,0.531-1.404,0.797   c-0.361-0.263-0.714-0.519-1.082-0.785C22.719,34.8,22.826,34.273,22.934,33.746L22.934,33.746L22.934,33.746z" /><path
       id="path275_1_"
       inkscape:connector-curvature="0"
       fill="#0D8955"
       d="M22.958,33.774c0.129-0.071,0.258-0.144,0.375-0.212   c0.613,0.444,1.211,0.879,1.818,1.319c-0.024,0.138-0.052,0.283-0.088,0.422c-0.455,0.263-0.917,0.521-1.369,0.778   c-0.353-0.256-0.699-0.508-1.053-0.765C22.746,34.809,22.848,34.289,22.958,33.774L22.958,33.774L22.958,33.774z" /><path
       id="path277_1_"
       inkscape:connector-curvature="0"
       fill="#02844D"
       d="M22.977,33.809c0.128-0.071,0.246-0.141,0.374-0.213   c0.591,0.43,1.176,0.854,1.759,1.277c-0.027,0.146-0.05,0.284-0.086,0.423c-0.444,0.249-0.883,0.504-1.329,0.754   c-0.346-0.251-0.678-0.492-1.023-0.744C22.778,34.81,22.877,34.309,22.977,33.809L22.977,33.809z" /><path
       id="path279_1_"
       inkscape:connector-curvature="0"
       fill="#027F45"
       d="M23,33.838c0.125-0.063,0.241-0.133,0.357-0.203   c0.577,0.419,1.139,0.827,1.716,1.246c-0.03,0.133-0.052,0.27-0.083,0.402c-0.433,0.247-0.867,0.494-1.299,0.743   c-0.332-0.241-0.657-0.477-0.995-0.724C22.798,34.814,22.9,34.326,23,33.838L23,33.838L23,33.838z" /><path
       id="path281_1_"
       inkscape:connector-curvature="0"
       fill="#047C40"
       d="M23.018,33.873c0.125-0.063,0.235-0.126,0.353-0.195   c0.555,0.402,1.103,0.801,1.658,1.203c-0.023,0.139-0.048,0.265-0.077,0.396c-0.416,0.238-0.838,0.472-1.259,0.717   c-0.324-0.235-0.642-0.466-0.958-0.696C22.83,34.816,22.928,34.346,23.018,33.873L23.018,33.873z" /><path
       id="path283_1_"
       inkscape:connector-curvature="0"
       fill="#05773D"
       d="M23.043,33.914c0.112-0.063,0.229-0.132,0.34-0.195   c0.534,0.388,1.067,0.775,1.609,1.169c-0.025,0.125-0.056,0.257-0.081,0.383c-0.404,0.224-0.815,0.455-1.217,0.691   c-0.318-0.23-0.621-0.451-0.931-0.676C22.855,34.824,22.951,34.362,23.043,33.914L23.043,33.914z" /><polygon
       id="polygon285_1_"
       fill="#05733B"
       points="24.947,34.888 24.878,35.256 23.695,35.928 22.794,35.274 23.067,33.942    23.067,33.942 23.389,33.756  " /><polygon
       id="polygon287_1_"
       fill="#FFFFFF"
       points="17.086,41.252 17.23,40.631 19.241,39.545 20.749,40.685 20.244,42.928    20.244,42.928 19.684,43.227  " /><path
       id="path289_1_"
       inkscape:connector-curvature="0"
       fill="#EAF1EB"
       d="M20.225,42.892c-0.189,0.094-0.371,0.193-0.554,0.293   c-0.85-0.651-1.685-1.291-2.54-1.934c0.043-0.211,0.088-0.409,0.133-0.607c0.665-0.355,1.322-0.714,1.982-1.063   c0.493,0.369,0.981,0.745,1.473,1.113C20.553,41.423,20.383,42.159,20.225,42.892L20.225,42.892L20.225,42.892z" /><path
       id="path291_1_"
       inkscape:connector-curvature="0"
       fill="#D9E8DE"
       d="M20.199,42.852c-0.174,0.104-0.352,0.196-0.534,0.294   c-0.835-0.639-1.662-1.261-2.496-1.9c0.044-0.198,0.09-0.396,0.135-0.596c0.647-0.345,1.294-0.69,1.941-1.035   c0.486,0.363,0.962,0.722,1.443,1.092C20.528,41.427,20.366,42.135,20.199,42.852L20.199,42.852z" /><path
       id="path293_1_"
       inkscape:connector-curvature="0"
       fill="#CCDFD1"
       d="M20.181,42.816c-0.17,0.097-0.352,0.196-0.528,0.288   c-0.813-0.624-1.625-1.235-2.44-1.859c0.041-0.191,0.085-0.39,0.125-0.581c0.634-0.343,1.277-0.682,1.912-1.024   c0.465,0.36,0.936,0.713,1.409,1.079C20.502,41.419,20.344,42.121,20.181,42.816L20.181,42.816z" /><path
       id="path295_1_"
       inkscape:connector-curvature="0"
       fill="#C0D7C6"
       d="M20.157,42.789c-0.165,0.089-0.341,0.182-0.511,0.277   c-0.799-0.612-1.596-1.213-2.388-1.822c0.039-0.19,0.079-0.383,0.125-0.568c0.617-0.334,1.235-0.668,1.864-1.004   c0.458,0.355,0.915,0.697,1.381,1.058C20.475,41.41,20.316,42.1,20.157,42.789L20.157,42.789L20.157,42.789z" /><path
       id="path297_1_"
       inkscape:connector-curvature="0"
       fill="#B1CFBA"
       d="M20.139,42.753c-0.165,0.09-0.329,0.181-0.505,0.272   c-0.778-0.598-1.554-1.184-2.344-1.779c0.047-0.187,0.087-0.377,0.133-0.563c0.601-0.324,1.211-0.652,1.824-0.979   c0.45,0.35,0.899,0.688,1.35,1.036C20.442,41.409,20.294,42.084,20.139,42.753L20.139,42.753L20.139,42.753z" /><path
       id="path299_1_"
       inkscape:connector-curvature="0"
       fill="#A4C7AF"
       d="M20.121,42.718c-0.165,0.09-0.329,0.179-0.494,0.27   c-0.763-0.589-1.524-1.163-2.292-1.742c0.047-0.188,0.08-0.371,0.123-0.551c0.594-0.316,1.193-0.642,1.787-0.96   c0.438,0.341,0.878,0.672,1.329,1.01C20.414,41.4,20.266,42.063,20.121,42.718L20.121,42.718L20.121,42.718z" /><path
       id="path301_1_"
       inkscape:connector-curvature="0"
       fill="#9AC1A7"
       d="M20.101,42.681c-0.165,0.091-0.323,0.174-0.487,0.263   c-0.747-0.563-1.489-1.136-2.243-1.705c0.042-0.179,0.084-0.357,0.126-0.535c0.576-0.31,1.158-0.625,1.747-0.936   c0.43,0.334,0.857,0.656,1.291,0.982C20.396,41.397,20.248,42.04,20.101,42.681L20.101,42.681z" /><path
       id="path303_1_"
       inkscape:connector-curvature="0"
       fill="#8BBB9D"
       d="M20.079,42.654c-0.159,0.082-0.319,0.166-0.471,0.253   c-0.732-0.554-1.459-1.115-2.191-1.668c0.036-0.172,0.078-0.351,0.115-0.523c0.571-0.3,1.14-0.615,1.711-0.916   c0.415,0.324,0.835,0.641,1.263,0.962C20.364,41.396,20.219,42.018,20.079,42.654L20.079,42.654z" /><path
       id="path305_1_"
       inkscape:connector-curvature="0"
       fill="#7EB392"
       d="M20.059,42.619c-0.158,0.082-0.306,0.163-0.464,0.245   c-0.719-0.544-1.417-1.083-2.136-1.627c0.038-0.171,0.074-0.343,0.117-0.51c0.547-0.297,1.105-0.596,1.665-0.896   c0.413,0.312,0.821,0.63,1.233,0.94C20.337,41.387,20.198,42.003,20.059,42.619L20.059,42.619z" /><path
       id="path307_1_"
       inkscape:connector-curvature="0"
       fill="#71AB88"
       d="M20.04,42.584c-0.153,0.075-0.305,0.162-0.452,0.243   c-0.704-0.532-1.394-1.055-2.091-1.595c0.039-0.159,0.075-0.331,0.113-0.491c0.547-0.296,1.088-0.587,1.629-0.877   c0.406,0.306,0.799,0.614,1.205,0.92C20.309,41.38,20.169,41.982,20.04,42.584L20.04,42.584L20.04,42.584z" /><path
       id="path309_1_"
       inkscape:connector-curvature="0"
       fill="#63A57F"
       d="M20.022,42.547c-0.154,0.077-0.3,0.158-0.446,0.239   c-0.682-0.519-1.356-1.03-2.038-1.547c0.042-0.168,0.074-0.332,0.114-0.49c0.527-0.289,1.051-0.569,1.587-0.853   c0.391,0.296,0.777,0.598,1.176,0.898C20.278,41.378,20.147,41.966,20.022,42.547L20.022,42.547L20.022,42.547z" /><path
       id="path311_1_"
       inkscape:connector-curvature="0"
       fill="#589F76"
       d="M19.992,42.514c-0.135,0.078-0.28,0.16-0.422,0.232   c-0.667-0.507-1.328-1.007-1.988-1.509c0.031-0.165,0.07-0.324,0.103-0.477c0.524-0.28,1.034-0.56,1.552-0.833   c0.384,0.29,0.762,0.574,1.148,0.877C20.258,41.375,20.131,41.944,19.992,42.514L19.992,42.514L19.992,42.514z" /><path
       id="path313_1_"
       inkscape:connector-curvature="0"
       fill="#4A996E"
       d="M19.974,42.479c-0.134,0.078-0.275,0.152-0.417,0.226   c-0.646-0.491-1.286-0.977-1.938-1.474c0.035-0.151,0.073-0.312,0.106-0.463c0.506-0.271,1.005-0.536,1.512-0.808   c0.376,0.284,0.746,0.564,1.123,0.85C20.232,41.367,20.103,41.923,19.974,42.479L19.974,42.479z" /><path
       id="path315_1_"
       inkscape:connector-curvature="0"
       fill="#3C9366"
       d="M19.955,42.444c-0.135,0.078-0.271,0.145-0.405,0.224   c-0.632-0.481-1.256-0.956-1.887-1.437c0.033-0.152,0.066-0.305,0.1-0.456c0.488-0.263,0.982-0.52,1.471-0.782   c0.363,0.274,0.726,0.548,1.095,0.828C20.199,41.365,20.081,41.908,19.955,42.444L19.955,42.444z" /><path
       id="path317_1_"
       inkscape:connector-curvature="0"
       fill="#288E5C"
       d="M19.937,42.41c-0.134,0.077-0.263,0.148-0.399,0.215   c-0.61-0.465-1.22-0.93-1.836-1.398c0.035-0.141,0.068-0.293,0.104-0.432c0.476-0.261,0.946-0.514,1.429-0.77   c0.355,0.269,0.704,0.533,1.059,0.802C20.173,41.356,20.052,41.886,19.937,42.41L19.937,42.41z" /><path
       id="path319_1_"
       inkscape:connector-curvature="0"
       fill="#0D8955"
       d="M19.914,42.38c-0.125,0.064-0.254,0.136-0.383,0.207   c-0.596-0.453-1.19-0.908-1.786-1.362c0.035-0.14,0.063-0.284,0.098-0.423c0.458-0.252,0.924-0.498,1.388-0.745   c0.342,0.259,0.683,0.518,1.031,0.782C20.152,41.353,20.03,41.871,19.914,42.38L19.914,42.38L19.914,42.38z" /><path
       id="path321_1_"
       inkscape:connector-curvature="0"
       fill="#02844D"
       d="M19.895,42.344c-0.124,0.065-0.253,0.137-0.376,0.2   c-0.581-0.443-1.148-0.877-1.734-1.313c0.028-0.145,0.063-0.284,0.094-0.417c0.452-0.244,0.905-0.488,1.353-0.725   c0.333,0.253,0.667,0.507,1,0.76C20.12,41.351,20.007,41.842,19.895,42.344L19.895,42.344L19.895,42.344z" /><path
       id="path323_1_"
       inkscape:connector-curvature="0"
       fill="#027F45"
       d="M19.876,42.309c-0.123,0.064-0.249,0.129-0.364,0.198   c-0.566-0.434-1.124-0.849-1.69-1.282c0.03-0.133,0.065-0.272,0.096-0.404c0.435-0.234,0.87-0.471,1.312-0.7   c0.328,0.249,0.646,0.492,0.973,0.74C20.094,41.343,19.985,41.826,19.876,42.309L19.876,42.309L19.876,42.309z" /><path
       id="path325_1_"
       inkscape:connector-curvature="0"
       fill="#047C40"
       d="M19.852,42.281c-0.118,0.058-0.235,0.127-0.354,0.184   c-0.544-0.416-1.087-0.823-1.631-1.24c0.03-0.132,0.06-0.264,0.084-0.391c0.429-0.227,0.853-0.46,1.277-0.681   c0.311,0.238,0.623,0.476,0.943,0.719C20.067,41.335,19.957,41.805,19.852,42.281L19.852,42.281z" /><path
       id="path327_1_"
       inkscape:connector-curvature="0"
       fill="#05773D"
       d="M19.834,42.247c-0.118,0.057-0.229,0.119-0.341,0.181   c-0.53-0.407-1.059-0.802-1.583-1.204c0.026-0.125,0.055-0.256,0.079-0.383c0.413-0.218,0.825-0.437,1.237-0.655   c0.306,0.233,0.603,0.46,0.92,0.69C20.035,41.334,19.935,41.79,19.834,42.247L19.834,42.247z" /><polygon
       id="polygon329_1_"
       fill="#05733B"
       points="17.949,41.218 18.032,40.86 19.226,40.217 20.117,40.886 19.809,42.205    19.809,42.205 19.48,42.384  " /><polygon
       id="polygon331_1_"
       fill="#FFFFFF"
       points="15.924,36.619 18.371,33.252 18.371,33.252 18.506,33.35 18.05,35.586    16.061,36.717  " /><path
       id="path333_1_"
       inkscape:connector-curvature="0"
       fill="#EAF1EB"
       d="M18.346,33.299c0.051,0.037,0.094,0.067,0.137,0.1   c-0.145,0.731-0.298,1.457-0.439,2.182c-0.649,0.364-1.293,0.734-1.944,1.1c-0.043-0.031-0.086-0.063-0.137-0.099   C16.759,35.485,17.55,34.396,18.346,33.299L18.346,33.299L18.346,33.299z" /><path
       id="path335_1_"
       inkscape:connector-curvature="0"
       fill="#D9E8DE"
       d="M18.323,33.361c0.043,0.031,0.086,0.063,0.13,0.094   c-0.137,0.705-0.279,1.416-0.424,2.115c-0.625,0.361-1.257,0.717-1.891,1.072c-0.043-0.031-0.086-0.063-0.129-0.093   C16.784,35.481,17.555,34.421,18.323,33.361L18.323,33.361z" /><path
       id="path337_1_"
       inkscape:connector-curvature="0"
       fill="#CCDFD1"
       d="M18.307,33.414c0.043,0.031,0.079,0.057,0.123,0.089   c-0.14,0.693-0.273,1.378-0.407,2.062c-0.614,0.348-1.23,0.693-1.845,1.04c-0.043-0.031-0.08-0.059-0.123-0.089   C16.809,35.477,17.558,34.446,18.307,33.414L18.307,33.414z" /><path
       id="path339_1_"
       inkscape:connector-curvature="0"
       fill="#C0D7C6"
       d="M18.282,33.463c0.043,0.031,0.086,0.063,0.13,0.094   c-0.143,0.668-0.274,1.333-0.404,1.998c-0.597,0.339-1.195,0.676-1.785,1.018c-0.043-0.032-0.086-0.063-0.13-0.095   C16.826,35.468,17.554,34.465,18.282,33.463L18.282,33.463L18.282,33.463z" /><path
       id="path341_1_"
       inkscape:connector-curvature="0"
       fill="#B1CFBA"
       d="M18.266,33.516c0.042,0.031,0.079,0.058,0.122,0.089   c-0.132,0.652-0.271,1.301-0.395,1.938c-0.579,0.328-1.151,0.662-1.732,0.99c-0.042-0.031-0.079-0.058-0.122-0.089   C16.851,35.464,17.554,34.498,18.266,33.516L18.266,33.516z" /><path
       id="path343_1_"
       inkscape:connector-curvature="0"
       fill="#A4C7AF"
       d="M18.248,33.571c0.036,0.025,0.072,0.052,0.115,0.083   c-0.128,0.633-0.257,1.267-0.376,1.884c-0.562,0.32-1.125,0.639-1.686,0.958c-0.043-0.032-0.08-0.059-0.116-0.084   C16.876,35.46,17.557,34.522,18.248,33.571L18.248,33.571z" /><path
       id="path345_1_"
       inkscape:connector-curvature="0"
       fill="#9AC1A7"
       d="M18.224,33.619c0.037,0.026,0.079,0.058,0.116,0.084   c-0.126,0.614-0.252,1.227-0.368,1.825c-0.544,0.311-1.089,0.619-1.632,0.93c-0.037-0.026-0.081-0.059-0.116-0.084   C16.893,35.45,17.554,34.542,18.224,33.619L18.224,33.619L18.224,33.619z" /><path
       id="path347_1_"
       inkscape:connector-curvature="0"
       fill="#8BBB9D"
       d="M18.207,33.673c0.037,0.026,0.072,0.052,0.107,0.078   c-0.122,0.595-0.245,1.188-0.357,1.768c-0.526,0.3-1.053,0.6-1.58,0.9c-0.036-0.025-0.072-0.052-0.108-0.078   C16.919,35.446,17.558,34.567,18.207,33.673L18.207,33.673L18.207,33.673z" /><path
       id="path349_1_"
       inkscape:connector-curvature="0"
       fill="#7EB392"
       d="M18.184,33.72c0.035,0.026,0.071,0.053,0.107,0.079   c-0.119,0.574-0.232,1.153-0.34,1.714c-0.509,0.291-1.025,0.576-1.534,0.868c-0.036-0.025-0.072-0.052-0.108-0.078   C16.935,35.437,17.555,34.587,18.184,33.72L18.184,33.72z" /><path
       id="path351_1_"
       inkscape:connector-curvature="0"
       fill="#71AB88"
       d="M18.165,33.775c0.037,0.026,0.073,0.053,0.102,0.073   c-0.108,0.56-0.225,1.114-0.331,1.654c-0.492,0.281-0.982,0.563-1.481,0.841c-0.029-0.021-0.064-0.047-0.101-0.073   C16.96,35.433,17.558,34.611,18.165,33.775L18.165,33.775z" /><path
       id="path353_1_"
       inkscape:connector-curvature="0"
       fill="#63A57F"
       d="M18.148,33.829c0.029,0.021,0.066,0.047,0.094,0.068   c-0.106,0.54-0.219,1.074-0.314,1.601c-0.48,0.269-0.955,0.539-1.436,0.808c-0.028-0.021-0.065-0.047-0.093-0.067   C16.985,35.429,17.562,34.636,18.148,33.829L18.148,33.829L18.148,33.829z" /><path
       id="path355_1_"
       inkscape:connector-curvature="0"
       fill="#589F76"
       d="M18.125,33.877c0.036,0.026,0.064,0.048,0.101,0.074   c-0.11,0.515-0.22,1.029-0.312,1.536c-0.463,0.258-0.919,0.521-1.375,0.785c-0.037-0.026-0.065-0.047-0.102-0.073   C17.004,35.42,17.559,34.656,18.125,33.877L18.125,33.877L18.125,33.877z" /><path
       id="path357_1_"
       inkscape:connector-curvature="0"
       fill="#4A996E"
       d="M18.108,33.931c0.028,0.021,0.058,0.041,0.093,0.067   c-0.107,0.496-0.205,0.996-0.302,1.478c-0.438,0.254-0.884,0.504-1.322,0.758c-0.036-0.026-0.065-0.047-0.093-0.067   C17.029,35.416,17.562,34.68,18.108,33.931L18.108,33.931z" /><path
       id="path359_1_"
       inkscape:connector-curvature="0"
       fill="#3C9366"
       d="M18.091,33.985c0.029,0.021,0.058,0.042,0.086,0.063   c-0.104,0.476-0.199,0.957-0.285,1.424c-0.427,0.24-0.854,0.479-1.276,0.726c-0.023-0.028-0.052-0.049-0.087-0.063   C17.054,35.413,17.567,34.706,18.091,33.985L18.091,33.985z" /><path
       id="path361_1_"
       inkscape:connector-curvature="0"
       fill="#288E5C"
       d="M18.066,34.033c0.028,0.021,0.059,0.043,0.087,0.063   c-0.093,0.46-0.193,0.917-0.275,1.364c-0.41,0.23-0.813,0.468-1.217,0.691c-0.029-0.021-0.058-0.042-0.087-0.063   C17.072,35.404,17.563,34.725,18.066,34.033L18.066,34.033z" /><path
       id="path363_1_"
       inkscape:connector-curvature="0"
       fill="#0D8955"
       d="M18.049,34.086c0.029,0.021,0.051,0.038,0.08,0.059   c-0.09,0.441-0.179,0.883-0.265,1.306c-0.386,0.227-0.778,0.448-1.166,0.663c-0.028-0.021-0.051-0.036-0.079-0.057   C17.097,35.399,17.567,34.75,18.049,34.086L18.049,34.086L18.049,34.086z" /><path
       id="path365_1_"
       inkscape:connector-curvature="0"
       fill="#02844D"
       d="M18.032,34.14c0.022,0.016,0.051,0.036,0.073,0.053   c-0.086,0.422-0.172,0.844-0.249,1.252c-0.374,0.212-0.749,0.425-1.119,0.629c-0.021-0.015-0.05-0.035-0.071-0.051   C17.122,35.395,17.572,34.775,18.032,34.14L18.032,34.14z" /><path
       id="path367_1_"
       inkscape:connector-curvature="0"
       fill="#027F45"
       d="M18.003,34.196c0.029,0.021,0.05,0.037,0.072,0.052   c-0.077,0.396-0.161,0.799-0.233,1.187c-0.357,0.203-0.714,0.406-1.065,0.603c-0.022-0.017-0.044-0.031-0.072-0.053   C17.139,35.386,17.568,34.795,18.003,34.196L18.003,34.196L18.003,34.196z" /><path
       id="path369_1_"
       inkscape:connector-curvature="0"
       fill="#047C40"
       d="M17.987,34.251c0.021,0.015,0.043,0.03,0.063,0.047   c-0.075,0.375-0.147,0.763-0.215,1.131c-0.339,0.194-0.686,0.384-1.021,0.57c-0.022-0.016-0.043-0.031-0.064-0.047   C17.164,35.382,17.573,34.82,17.987,34.251L17.987,34.251L17.987,34.251z" /><path
       id="path371_1_"
       inkscape:connector-curvature="0"
       fill="#05773D"
       d="M17.962,34.298c0.022,0.016,0.05,0.037,0.072,0.052   c-0.071,0.356-0.148,0.719-0.214,1.069c-0.322,0.185-0.643,0.369-0.959,0.547c-0.021-0.016-0.051-0.037-0.073-0.053   C17.181,35.373,17.569,34.839,17.962,34.298L17.962,34.298z" /><polygon
       id="polygon373_1_"
       fill="#05733B"
       points="16.835,35.881 17.945,34.352 17.945,34.352 18.009,34.399 17.806,35.409    16.899,35.927  " /><polygon
       id="polygon375_1_"
       fill="#FFFFFF"
       points="26.953,39.483 24.514,42.857 24.514,42.857 24.37,42.752 24.83,40.509    26.815,39.383  " /><path
       id="path377_1_"
       inkscape:connector-curvature="0"
       fill="#EAF1EB"
       d="M24.531,42.803c-0.043-0.031-0.087-0.063-0.138-0.1   c0.153-0.726,0.299-1.458,0.444-2.188c0.646-0.358,1.289-0.729,1.939-1.093c0.043,0.03,0.087,0.063,0.13,0.095   C26.118,40.617,25.327,41.707,24.531,42.803L24.531,42.803L24.531,42.803z" /><path
       id="path379_1_"
       inkscape:connector-curvature="0"
       fill="#D9E8DE"
       d="M24.547,42.75c-0.043-0.032-0.086-0.063-0.13-0.096   c0.144-0.711,0.292-1.417,0.435-2.128c0.627-0.351,1.252-0.71,1.886-1.066c0.043,0.031,0.086,0.063,0.13,0.095   C26.093,40.621,25.323,41.682,24.547,42.75L24.547,42.75z" /><path
       id="path381_1_"
       inkscape:connector-curvature="0"
       fill="#CCDFD1"
       d="M24.572,42.701c-0.043-0.032-0.087-0.063-0.13-0.095   c0.139-0.691,0.277-1.384,0.425-2.07c0.603-0.345,1.212-0.684,1.827-1.03c0.036,0.026,0.079,0.058,0.123,0.089   C26.067,40.626,25.327,41.663,24.572,42.701L24.572,42.701z" /><path
       id="path383_1_"
       inkscape:connector-curvature="0"
       fill="#C0D7C6"
       d="M24.589,42.647c-0.043-0.032-0.08-0.059-0.124-0.09   c0.136-0.671,0.271-1.345,0.408-2.016c0.587-0.324,1.185-0.661,1.775-1.004c0.043,0.032,0.086,0.063,0.13,0.094   C26.05,40.635,25.322,41.637,24.589,42.647L24.589,42.647z" /><path
       id="path385_1_"
       inkscape:connector-curvature="0"
       fill="#B1CFBA"
       d="M24.606,42.593c-0.036-0.025-0.08-0.057-0.116-0.083   c0.133-0.654,0.265-1.308,0.398-1.959c0.569-0.314,1.149-0.642,1.721-0.976c0.043,0.032,0.08,0.058,0.124,0.089   C26.025,40.638,25.319,41.613,24.606,42.593L24.606,42.593z" /><path
       id="path387_1_"
       inkscape:connector-curvature="0"
       fill="#A4C7AF"
       d="M24.63,42.546c-0.043-0.031-0.08-0.059-0.115-0.084   c0.129-0.634,0.258-1.268,0.389-1.9c0.543-0.31,1.105-0.628,1.667-0.947c0.043,0.031,0.08,0.058,0.117,0.085   C26.008,40.648,25.322,41.593,24.63,42.546L24.63,42.546z" /><path
       id="path389_1_"
       inkscape:connector-curvature="0"
       fill="#9AC1A7"
       d="M24.647,42.491c-0.037-0.026-0.073-0.053-0.108-0.078   c0.119-0.618,0.245-1.232,0.371-1.845c0.533-0.297,1.078-0.605,1.622-0.916c0.036,0.026,0.079,0.059,0.115,0.085   C25.982,40.653,25.317,41.568,24.647,42.491L24.647,42.491L24.647,42.491z" /><path
       id="path391_1_"
       inkscape:connector-curvature="0"
       fill="#8BBB9D"
       d="M24.671,42.442c-0.036-0.025-0.079-0.058-0.115-0.084   c0.123-0.594,0.246-1.188,0.368-1.78c0.516-0.286,1.043-0.587,1.569-0.888c0.036,0.026,0.072,0.052,0.108,0.078   C25.952,40.663,25.313,41.543,24.671,42.442L24.671,42.442L24.671,42.442z" /><path
       id="path393_1_"
       inkscape:connector-curvature="0"
       fill="#7EB392"
       d="M24.687,42.389c-0.036-0.025-0.072-0.052-0.107-0.078   c0.12-0.575,0.239-1.149,0.352-1.729c0.505-0.271,1.014-0.563,1.523-0.854c0.036,0.026,0.072,0.053,0.107,0.078   C25.934,40.672,25.317,41.523,24.687,42.389L24.687,42.389z" /><path
       id="path395_1_"
       inkscape:connector-curvature="0"
       fill="#71AB88"
       d="M24.705,42.335c-0.028-0.021-0.063-0.046-0.1-0.072   c0.116-0.556,0.225-1.115,0.341-1.669c0.48-0.268,0.972-0.551,1.47-0.827c0.029,0.021,0.065,0.048,0.101,0.073   C25.91,40.676,25.313,41.499,24.705,42.335L24.705,42.335z" /><path
       id="path397_1_"
       inkscape:connector-curvature="0"
       fill="#63A57F"
       d="M24.729,42.287c-0.036-0.026-0.065-0.048-0.101-0.074   c0.113-0.534,0.218-1.075,0.332-1.609c0.463-0.258,0.937-0.531,1.418-0.798c0.028,0.021,0.065,0.047,0.093,0.067   C25.884,40.68,25.316,41.479,24.729,42.287L24.729,42.287L24.729,42.287z" /><path
       id="path399_1_"
       inkscape:connector-curvature="0"
       fill="#589F76"
       d="M24.746,42.232c-0.029-0.021-0.065-0.047-0.094-0.067   c0.103-0.521,0.213-1.036,0.315-1.556c0.453-0.244,0.909-0.509,1.366-0.771c0.035,0.025,0.064,0.046,0.1,0.073   C25.867,40.689,25.312,41.454,24.746,42.232L24.746,42.232L24.746,42.232z" /><path
       id="path401_1_"
       inkscape:connector-curvature="0"
       fill="#4A996E"
       d="M24.764,42.178c-0.029-0.021-0.058-0.041-0.086-0.063   c0.098-0.5,0.205-0.996,0.304-1.497c0.428-0.24,0.873-0.489,1.312-0.744c0.036,0.027,0.065,0.048,0.094,0.068   C25.842,40.693,25.308,41.428,24.764,42.178L24.764,42.178z" /><path
       id="path403_1_"
       inkscape:connector-curvature="0"
       fill="#3C9366"
       d="M24.793,42.124c-0.029-0.021-0.058-0.042-0.086-0.063   c0.09-0.476,0.186-0.955,0.29-1.432c0.41-0.23,0.837-0.472,1.257-0.717c0.029,0.021,0.059,0.043,0.088,0.063   C25.825,40.703,25.311,41.409,24.793,42.124L24.793,42.124L24.793,42.124z" /><path
       id="path405_1_"
       inkscape:connector-curvature="0"
       fill="#288E5C"
       d="M24.81,42.07c-0.028-0.021-0.058-0.042-0.086-0.063   c0.094-0.45,0.187-0.911,0.279-1.372c0.4-0.217,0.802-0.453,1.212-0.684c0.028,0.021,0.058,0.041,0.086,0.063   C25.8,40.707,25.307,41.385,24.81,42.07L24.81,42.07z" /><path
       id="path407_1_"
       inkscape:connector-curvature="0"
       fill="#0D8955"
       d="M24.827,42.016c-0.022-0.017-0.05-0.036-0.079-0.058   c0.084-0.436,0.181-0.871,0.27-1.313c0.382-0.207,0.767-0.435,1.16-0.656c0.028,0.021,0.051,0.036,0.079,0.057   C25.774,40.71,25.304,41.359,24.827,42.016L24.827,42.016L24.827,42.016z" /><path
       id="path409_1_"
       inkscape:connector-curvature="0"
       fill="#02844D"
       d="M24.851,41.966c-0.029-0.021-0.051-0.036-0.079-0.058   c0.08-0.414,0.167-0.836,0.253-1.259c0.364-0.198,0.739-0.411,1.113-0.623c0.021,0.016,0.051,0.037,0.079,0.058   C25.758,40.719,25.307,41.339,24.851,41.966L24.851,41.966z" /><path
       id="path411_1_"
       inkscape:connector-curvature="0"
       fill="#027F45"
       d="M24.869,41.914c-0.022-0.017-0.05-0.037-0.073-0.053   c0.079-0.396,0.16-0.798,0.244-1.199c0.346-0.189,0.704-0.394,1.055-0.59c0.027,0.01,0.056,0.03,0.078,0.047   C25.732,40.724,25.303,41.315,24.869,41.914L24.869,41.914L24.869,41.914z" /><path
       id="path413_1_"
       inkscape:connector-curvature="0"
       fill="#047C40"
       d="M24.892,41.865c-0.028-0.021-0.051-0.036-0.072-0.052   c0.074-0.376,0.154-0.759,0.233-1.141c0.329-0.181,0.668-0.374,1.002-0.563c0.021,0.016,0.043,0.032,0.064,0.048   C25.707,40.728,25.306,41.296,24.892,41.865L24.892,41.865L24.892,41.865z" /><path
       id="path415_1_"
       inkscape:connector-curvature="0"
       fill="#05773D"
       d="M24.909,41.811c-0.021-0.016-0.043-0.031-0.065-0.047   c0.072-0.356,0.141-0.724,0.217-1.087c0.312-0.171,0.633-0.356,0.95-0.534c0.028,0.021,0.05,0.036,0.072,0.052   C25.69,40.737,25.302,41.271,24.909,41.811L24.909,41.811z" /><polygon
       id="polygon417_1_"
       fill="#05733B"
       points="26.037,40.228 24.926,41.756 24.926,41.756 24.869,41.715 25.075,40.687    25.972,40.181  " /></g></svg>