<?xml version="1.0" encoding="utf-8"?>
<!-- Generator: Adobe Illustrator 16.0.0, SVG Export Plug-In . SVG Version: 6.00 Build 0)  -->
<!DOCTYPE svg PUBLIC "-//W3C//DTD SVG 1.1//EN" "http://www.w3.org/Graphics/SVG/1.1/DTD/svg11.dtd">
<svg version="1.1" id="Ñëîé_1" xmlns="http://www.w3.org/2000/svg" xmlns:xlink="http://www.w3.org/1999/xlink" x="0px" y="0px"
	 width="604px" height="179px" viewBox="0 0 604 179" enable-background="new 0 0 604 179" xml:space="preserve">
<g>
	<g>
		<path fill="#FF6600" d="M124.469,46.671l-16.842,21.604H82.54v62.138H56.523V68.274H22.027l16.726-21.604H124.469z"/>
		<path fill="#FF6600" d="M224.355,130.412h-37.748l-25.319-21.022h-35.773v21.022H99.498V87.787h72.243
			c4.413,0,8.052-0.666,10.917-1.998c3.639-1.725,5.459-4.271,5.459-7.641c0-6.582-5.459-9.874-16.376-9.874H99.498l16.957-21.604
			h52.847c13.085,0,23.693,2.479,31.824,7.434c9.136,5.653,13.705,13.705,13.705,24.158c0,5.886-1.84,11.208-5.517,15.97
			c-3.679,4.763-8.77,8.421-15.273,10.977L224.355,130.412z"/>
		<g>
			<path fill="#FF6600" d="M298.727,108.81h-25.163c-7.19,0-13.104-1.844-17.743-5.532c-0.245-0.195-0.457-0.406-0.689-0.607
				c-4.161,3.748-6.269,8.441-6.269,14.104c0,3.778,0.931,7.097,2.782,9.959c6.515,2.447,13.792,3.679,21.841,3.679h25.203
				c8.121,0,15.462-1.262,22.028-3.78c1.807-2.839,2.711-6.124,2.711-9.857c0-5.651-2.117-10.337-6.295-14.081
				c-0.224,0.193-0.428,0.396-0.663,0.584C311.831,106.966,305.917,108.81,298.727,108.81z"/>
			<path fill="#FF6600" d="M298.727,68.274c6.597,0,12.132,1.675,16.635,4.981c0.372-0.262,0.751-0.515,1.108-0.799
				c4.639-3.688,6.958-8.521,6.958-14.503c0-2.659-0.489-5.095-1.415-7.331c-6.853-2.627-14.623-3.952-23.325-3.952h-25.203
				c-8.641,0-16.368,1.306-23.197,3.895c-0.933,2.253-1.426,4.707-1.426,7.389c0,5.981,2.319,10.815,6.958,14.503
				c0.347,0.275,0.715,0.52,1.076,0.775c4.468-3.291,10.014-4.958,16.667-4.958H298.727z"/>
			<path fill="#FF6600" d="M346.214,72.415c-2.232,5.292-5.718,10.04-10.452,14.247c5.154,4.32,8.827,9.371,11.015,15.15
				c1.614-4.328,2.436-8.998,2.436-14.025C349.213,82.172,348.205,77.052,346.214,72.415z"/>
			<path fill="#FF6600" d="M236.322,86.686c-4.744-4.209-8.236-8.961-10.473-14.256c-1.994,4.633-3.004,9.748-3.004,15.357
				c0,5.032,0.822,9.707,2.439,14.039C227.478,96.051,231.157,91.005,236.322,86.686z"/>
			<path fill="#FF6600" d="M334.984,118.575c-4.229,3.578-8.947,6.361-14.152,8.356c-1.087,1.711-2.502,3.259-4.247,4.646
				c-4.639,3.688-10.553,5.532-17.743,5.532h-25.163c-7.19,0-13.104-1.844-17.743-5.532c-1.708-1.358-3.097-2.875-4.176-4.544
				c-5.33-2.003-10.151-4.816-14.455-8.458c-5.63-4.764-9.589-10.25-11.905-16.449c-1.617,4.26-2.439,8.909-2.439,13.961
				c0,12.235,4.78,22.397,14.344,30.488c9.562,8.092,21.661,12.137,36.296,12.137h25.203c14.557,0,26.616-4.045,36.18-12.137
				c9.563-8.091,14.345-18.253,14.345-30.488c0-5.058-0.82-9.711-2.436-13.975C344.579,108.317,340.617,113.809,334.984,118.575z"/>
			<path fill="#FF6600" d="M237.073,55.588c3.944-3.155,8.354-5.645,13.215-7.488c1.147-2.769,2.974-5.226,5.532-7.346
				c4.639-3.844,10.553-5.766,17.743-5.766h25.163c7.112,0,13.007,1.922,17.686,5.766c2.597,2.134,4.446,4.61,5.601,7.403
				c4.793,1.838,9.141,4.308,13.03,7.431c5.11,4.105,8.825,8.896,11.171,14.361c1.991-4.72,2.999-9.865,2.999-15.448
				c0-12.233-4.725-22.145-14.17-29.733c-9.448-7.588-21.565-11.383-36.354-11.383h-25.203c-14.791,0-26.928,3.795-36.412,11.383
				c-9.485,7.589-14.228,17.5-14.228,29.733c0,5.588,1.009,10.739,3.004,15.463C228.204,64.493,231.938,59.696,237.073,55.588z"/>
		</g>
		<path fill="#FF6600" d="M464.661,46.671l-16.726,21.604h-59.234c-3.176,0-4.762,1.144-4.762,3.426
			c0,2.285,1.586,3.427,4.762,3.427h42.626c10.143,0,18.621,2.479,25.436,7.434c7.045,5.266,10.569,12.079,10.569,20.441
			c0,8.286-3.559,14.982-10.674,20.093c-6.653,4.879-15.085,7.317-25.295,7.317h-76.576l16.703-21.603h59.852
			c2.706,0,5.141-0.465,7.308-1.395c2.784-1.161,4.176-2.747,4.176-4.762c0-2.091-1.394-3.677-4.181-4.762
			c-2.091-0.773-4.53-1.161-7.317-1.161h-42.626c-9.447,0-17.346-2.167-23.693-6.505c-6.814-4.646-10.221-10.802-10.221-18.467
			c0-7.742,3.406-13.938,10.221-18.584c6.348-4.335,14.246-6.504,23.693-6.504H464.661z"/>
	</g>
</g>
<path fill="#FF6600" d="M478.31,127.765c0,0.939-0.366,1.706-1.1,2.302c-0.732,0.596-1.672,0.893-2.816,0.893
	c-1.146,0-2.084-0.297-2.816-0.893c-0.733-0.596-1.099-1.362-1.099-2.302c0-0.962,0.365-1.739,1.099-2.335
	c0.732-0.596,1.671-0.894,2.816-0.894c1.145,0,2.084,0.298,2.816,0.894C477.943,126.025,478.31,126.803,478.31,127.765z"/>
<path fill="#FF6600" d="M518.46,118.285c0,3.618-1.414,6.624-4.241,9.017c-2.828,2.393-6.395,3.589-10.699,3.589h-7.454
	c-4.327,0-7.905-1.196-10.732-3.589c-2.829-2.393-4.242-5.398-4.242-9.017c0-3.617,1.402-6.548,4.208-8.793
	c2.804-2.243,6.394-3.366,10.767-3.366h7.454c4.373,0,7.957,1.123,10.751,3.366C517.063,111.737,518.46,114.668,518.46,118.285z
	 M503.53,112.516h-7.44c-2.127,0-3.876,0.567-5.248,1.704c-1.371,1.137-2.057,2.59-2.057,4.357c0,1.769,0.686,3.198,2.057,4.288
	c1.372,1.092,3.121,1.637,5.248,1.637h7.44c2.127,0,3.876-0.545,5.247-1.637c1.372-1.09,2.058-2.52,2.058-4.288
	c0-1.768-0.691-3.221-2.074-4.357C507.377,113.083,505.634,112.516,503.53,112.516z"/>
<path fill="#FF6600" d="M557.409,130.891h-11.162l-7.488-6.217h-10.578v6.217h-7.694v-12.605h21.364
	c1.305,0,2.381-0.197,3.228-0.591c1.076-0.511,1.615-1.263,1.615-2.259c0-1.947-1.615-2.92-4.843-2.92h-21.364l5.015-6.39h15.628
	c3.869,0,7.007,0.733,9.411,2.198c2.701,1.672,4.053,4.053,4.053,7.145c0,1.74-0.544,3.314-1.631,4.723
	c-1.089,1.408-2.594,2.49-4.518,3.246L557.409,130.891z"/>
<path fill="#FF6600" d="M589.317,106.126l-4.946,6.39h-12.433c-2.107,0-3.853,0.567-5.239,1.704
	c-1.385,1.137-2.077,2.59-2.077,4.357c0,1.769,0.688,3.198,2.062,4.288c1.373,1.092,3.126,1.637,5.255,1.637h8.93v-2.301h-9.616
	l-5.05-6.114h22.359v14.804h-16.623c-4.306,0-7.871-1.196-10.699-3.589s-4.242-5.398-4.242-9.017c0-3.617,1.396-6.548,4.19-8.793
	c2.794-2.243,6.377-3.366,10.751-3.366H589.317z"/>
</svg>
